<svg xmlns="http://www.w3.org/2000/svg" width="900" height="490" viewBox="0 0 900 490"><rect width="900" height="490" rx="12" fill="#1f1e1d"/><g shape-rendering="crispEdges"><text x="16" y="24" font-family="sans-serif" font-size="12" fill="#a8a29e" text-anchor="start">Summoned minions, 8 x 8 each: two idle frames, then the attack. All face left, like the hero.</text><rect x="12" y="34" width="876" height="64" rx="6" fill="#faf9f5"/><rect x="510" y="34" width="378" height="64" rx="6" fill="#262624"/><text x="28" y="64" font-family="sans-serif" font-size="13" fill="#3d3929" text-anchor="start">Flame imp</text><text x="28" y="80" font-family="sans-serif" font-size="11" fill="#8a8578" text-anchor="start">flies</text><path fill="#ffc94a" d="M208 42h12v6h-12zM202 48h6v6h-6zM220 48h6v6h-6zM208 84h12v6h-12z"/><path fill="#8a3a20" d="M190 48h6v6h-6zM232 48h6v6h-6zM190 54h6v6h-6zM232 54h6v6h-6z"/><path fill="#fff1a8" d="M208 48h12v6h-12zM208 54h12v6h-12z"/><path fill="#4a1408" d="M196 54h6v6h-6zM226 54h6v6h-6zM190 60h6v6h-6zM232 60h6v6h-6zM190 66h6v6h-6zM232 66h6v6h-6zM190 72h6v6h-6zM232 72h6v6h-6zM196 78h6v6h-6zM226 78h6v6h-6zM202 84h6v6h-6zM220 84h6v6h-6z"/><path fill="#ff9a3a" d="M202 54h6v6h-6zM220 54h6v6h-6zM196 60h6v6h-6z"/><path fill="#e8562a" d="M202 60h24v6h-24zM208 66h6v6h-6zM196 72h6v6h-6zM214 72h12v6h-12zM202 78h12v6h-12z"/><path fill="#b2341a" d="M226 60h6v6h-6zM226 66h6v6h-6zM226 72h6v6h-6zM214 78h12v6h-12z"/><path fill="#fff6d8" d="M196 66h6v6h-6zM214 66h6v6h-6z"/><path fill="#2a0e08" d="M202 66h6v6h-6zM220 66h6v6h-6z"/><path fill="#5a1408" d="M202 72h12v6h-12z"/><path fill="#ffc94a" d="M266 42h6v6h-6zM284 42h6v6h-6zM272 48h6v6h-6zM272 54h6v6h-6zM272 84h12v6h-12z"/><path fill="#8a3a20" d="M254 48h6v6h-6zM296 48h6v6h-6zM254 54h6v6h-6zM296 54h6v6h-6z"/><path fill="#fff1a8" d="M278 48h6v6h-6zM278 54h6v6h-6z"/><path fill="#4a1408" d="M260 54h6v6h-6zM290 54h6v6h-6zM254 60h6v6h-6zM296 60h6v6h-6zM254 66h6v6h-6zM296 66h6v6h-6zM254 72h6v6h-6zM296 72h6v6h-6zM260 78h6v6h-6zM290 78h6v6h-6z"/><path fill="#ff9a3a" d="M266 54h6v6h-6zM284 54h6v6h-6zM260 60h6v6h-6z"/><path fill="#e8562a" d="M266 60h24v6h-24zM272 66h6v6h-6zM260 72h6v6h-6zM278 72h12v6h-12zM266 78h12v6h-12z"/><path fill="#b2341a" d="M290 60h6v6h-6zM290 66h6v6h-6zM290 72h6v6h-6zM278 78h12v6h-12z"/><path fill="#fff6d8" d="M260 66h6v6h-6zM278 66h6v6h-6z"/><path fill="#2a0e08" d="M266 66h6v6h-6zM284 66h6v6h-6z"/><path fill="#5a1408" d="M266 72h12v6h-12z"/><path fill="#ffc94a" d="M336 42h12v6h-12zM330 48h6v6h-6zM348 48h6v6h-6zM318 78h6v6h-6zM336 84h12v6h-12z"/><path fill="#8a3a20" d="M318 48h6v6h-6zM360 48h6v6h-6zM318 54h6v6h-6zM360 54h6v6h-6z"/><path fill="#fff1a8" d="M336 48h12v6h-12zM336 54h12v6h-12zM318 72h6v6h-6zM324 78h6v6h-6zM318 84h6v6h-6z"/><path fill="#4a1408" d="M324 54h6v6h-6zM354 54h6v6h-6zM318 60h6v6h-6zM360 60h6v6h-6zM318 66h6v6h-6zM360 66h6v6h-6zM324 72h6v6h-6zM360 72h6v6h-6zM354 78h6v6h-6zM330 84h6v6h-6zM348 84h6v6h-6z"/><path fill="#ff9a3a" d="M330 54h6v6h-6zM348 54h6v6h-6zM324 60h6v6h-6z"/><path fill="#e8562a" d="M330 60h24v6h-24zM336 66h6v6h-6zM342 72h12v6h-12zM336 78h6v6h-6z"/><path fill="#b2341a" d="M354 60h6v6h-6zM354 66h6v6h-6zM354 72h6v6h-6zM342 78h12v6h-12z"/><path fill="#2a0e08" d="M324 66h12v6h-12zM342 66h12v6h-12z"/><path fill="#5a1408" d="M330 72h12v6h-12zM330 78h6v6h-6z"/><path fill="#ffc94a" d="M552 42h12v6h-12zM546 48h6v6h-6zM564 48h6v6h-6zM552 84h12v6h-12z"/><path fill="#8a3a20" d="M534 48h6v6h-6zM576 48h6v6h-6zM534 54h6v6h-6zM576 54h6v6h-6z"/><path fill="#fff1a8" d="M552 48h12v6h-12zM552 54h12v6h-12z"/><path fill="#4a1408" d="M540 54h6v6h-6zM570 54h6v6h-6zM534 60h6v6h-6zM576 60h6v6h-6zM534 66h6v6h-6zM576 66h6v6h-6zM534 72h6v6h-6zM576 72h6v6h-6zM540 78h6v6h-6zM570 78h6v6h-6zM546 84h6v6h-6zM564 84h6v6h-6z"/><path fill="#ff9a3a" d="M546 54h6v6h-6zM564 54h6v6h-6zM540 60h6v6h-6z"/><path fill="#e8562a" d="M546 60h24v6h-24zM552 66h6v6h-6zM540 72h6v6h-6zM558 72h12v6h-12zM546 78h12v6h-12z"/><path fill="#b2341a" d="M570 60h6v6h-6zM570 66h6v6h-6zM570 72h6v6h-6zM558 78h12v6h-12z"/><path fill="#fff6d8" d="M540 66h6v6h-6zM558 66h6v6h-6z"/><path fill="#2a0e08" d="M546 66h6v6h-6zM564 66h6v6h-6z"/><path fill="#5a1408" d="M546 72h12v6h-12z"/><path fill="#ffc94a" d="M610 42h6v6h-6zM628 42h6v6h-6zM616 48h6v6h-6zM616 54h6v6h-6zM616 84h12v6h-12z"/><path fill="#8a3a20" d="M598 48h6v6h-6zM640 48h6v6h-6zM598 54h6v6h-6zM640 54h6v6h-6z"/><path fill="#fff1a8" d="M622 48h6v6h-6zM622 54h6v6h-6z"/><path fill="#4a1408" d="M604 54h6v6h-6zM634 54h6v6h-6zM598 60h6v6h-6zM640 60h6v6h-6zM598 66h6v6h-6zM640 66h6v6h-6zM598 72h6v6h-6zM640 72h6v6h-6zM604 78h6v6h-6zM634 78h6v6h-6z"/><path fill="#ff9a3a" d="M610 54h6v6h-6zM628 54h6v6h-6zM604 60h6v6h-6z"/><path fill="#e8562a" d="M610 60h24v6h-24zM616 66h6v6h-6zM604 72h6v6h-6zM622 72h12v6h-12zM610 78h12v6h-12z"/><path fill="#b2341a" d="M634 60h6v6h-6zM634 66h6v6h-6zM634 72h6v6h-6zM622 78h12v6h-12z"/><path fill="#fff6d8" d="M604 66h6v6h-6zM622 66h6v6h-6z"/><path fill="#2a0e08" d="M610 66h6v6h-6zM628 66h6v6h-6z"/><path fill="#5a1408" d="M610 72h12v6h-12z"/><path fill="#ffc94a" d="M680 42h12v6h-12zM674 48h6v6h-6zM692 48h6v6h-6zM662 78h6v6h-6zM680 84h12v6h-12z"/><path fill="#8a3a20" d="M662 48h6v6h-6zM704 48h6v6h-6zM662 54h6v6h-6zM704 54h6v6h-6z"/><path fill="#fff1a8" d="M680 48h12v6h-12zM680 54h12v6h-12zM662 72h6v6h-6zM668 78h6v6h-6zM662 84h6v6h-6z"/><path fill="#4a1408" d="M668 54h6v6h-6zM698 54h6v6h-6zM662 60h6v6h-6zM704 60h6v6h-6zM662 66h6v6h-6zM704 66h6v6h-6zM668 72h6v6h-6zM704 72h6v6h-6zM698 78h6v6h-6zM674 84h6v6h-6zM692 84h6v6h-6z"/><path fill="#ff9a3a" d="M674 54h6v6h-6zM692 54h6v6h-6zM668 60h6v6h-6z"/><path fill="#e8562a" d="M674 60h24v6h-24zM680 66h6v6h-6zM686 72h12v6h-12zM680 78h6v6h-6z"/><path fill="#b2341a" d="M698 60h6v6h-6zM698 66h6v6h-6zM698 72h6v6h-6zM686 78h12v6h-12z"/><path fill="#2a0e08" d="M668 66h12v6h-12zM686 66h12v6h-12z"/><path fill="#5a1408" d="M674 72h12v6h-12zM674 78h6v6h-6z"/><path fill="#1c1310" d="M393 60h18v3h-18zM390 63h3v3h-3zM411 63h3v3h-3zM387 66h3v3h-3zM414 66h3v3h-3zM387 69h3v3h-3zM414 69h3v3h-3zM387 72h3v3h-3zM414 72h3v3h-3zM390 75h3v3h-3zM411 75h3v3h-3z"/><path fill="#9c6436" d="M393 63h15v3h-15z"/><path fill="#5e3720" d="M408 63h3v3h-3zM408 66h6v3h-6z"/><path fill="#8a5530" d="M390 66h3v3h-3z"/><path fill="#8a5530" d="M393 66h15v3h-15z"/><path fill="#f3c9a0" d="M390 69h3v3h-3zM399 69h6v3h-6zM390 72h3v3h-3zM399 72h6v3h-6zM393 75h3v3h-3zM399 75h9v3h-9zM393 81h3v3h-3z"/><path fill="#ffffff" d="M393 69h3v3h-3z"/><path fill="#1e1b22" d="M396 69h3v3h-3zM393 72h6v3h-6z"/><path fill="#8a5530" d="M405 69h6v3h-6zM408 72h3v3h-3z"/><path fill="#5e3720" d="M411 69h3v3h-3zM411 72h3v3h-3zM408 75h3v3h-3z"/><path fill="#d99d76" d="M405 72h3v3h-3zM396 75h3v3h-3z"/><path fill="#4fb043" d="M393 78h12v3h-12zM396 81h6v3h-6z"/><path fill="#23662d" d="M405 78h6v3h-6zM402 81h9v3h-9z"/><path fill="#a8744a" d="M393 84h6v3h-6z"/><path fill="#6a4328" d="M399 84h12v3h-12z"/><path fill="#1c1310" d="M390 87h3v3h-3zM399 87h3v3h-3zM411 87h3v3h-3z"/><path fill="#6e4a32" d="M393 87h6v3h-6z"/><path fill="#3a2516" d="M402 87h9v3h-9z"/><path fill="#ffc94a" d="M435 60h6v3h-6zM432 63h3v3h-3zM441 63h3v3h-3zM435 81h6v3h-6z"/><path fill="#8a3a20" d="M426 63h3v3h-3zM447 63h3v3h-3zM426 66h3v3h-3zM447 66h3v3h-3z"/><path fill="#fff1a8" d="M435 63h6v3h-6zM435 66h6v3h-6z"/><path fill="#4a1408" d="M429 66h3v3h-3zM444 66h3v3h-3zM426 69h3v3h-3zM447 69h3v3h-3zM426 72h3v3h-3zM447 72h3v3h-3zM426 75h3v3h-3zM447 75h3v3h-3zM429 78h3v3h-3zM444 78h3v3h-3zM432 81h3v3h-3zM441 81h3v3h-3z"/><path fill="#ff9a3a" d="M432 66h3v3h-3zM441 66h3v3h-3zM429 69h3v3h-3z"/><path fill="#e8562a" d="M432 69h12v3h-12zM435 72h3v3h-3zM429 75h3v3h-3zM438 75h6v3h-6zM432 78h6v3h-6z"/><path fill="#b2341a" d="M444 69h3v3h-3zM444 72h3v3h-3zM444 75h3v3h-3zM438 78h6v3h-6z"/><path fill="#fff6d8" d="M429 72h3v3h-3zM438 72h3v3h-3z"/><path fill="#2a0e08" d="M432 72h3v3h-3zM441 72h3v3h-3z"/><path fill="#5a1408" d="M432 75h6v3h-6z"/><path fill="#1c1310" d="M791 60h18v3h-18zM788 63h3v3h-3zM809 63h3v3h-3zM785 66h3v3h-3zM812 66h3v3h-3zM785 69h3v3h-3zM812 69h3v3h-3zM785 72h3v3h-3zM812 72h3v3h-3zM788 75h3v3h-3zM809 75h3v3h-3z"/><path fill="#9c6436" d="M791 63h15v3h-15z"/><path fill="#5e3720" d="M806 63h3v3h-3zM806 66h6v3h-6z"/><path fill="#8a5530" d="M788 66h3v3h-3z"/><path fill="#8a5530" d="M791 66h15v3h-15z"/><path fill="#f3c9a0" d="M788 69h3v3h-3zM797 69h6v3h-6zM788 72h3v3h-3zM797 72h6v3h-6zM791 75h3v3h-3zM797 75h9v3h-9zM791 81h3v3h-3z"/><path fill="#ffffff" d="M791 69h3v3h-3z"/><path fill="#1e1b22" d="M794 69h3v3h-3zM791 72h6v3h-6z"/><path fill="#8a5530" d="M803 69h6v3h-6zM806 72h3v3h-3z"/><path fill="#5e3720" d="M809 69h3v3h-3zM809 72h3v3h-3zM806 75h3v3h-3z"/><path fill="#d99d76" d="M803 72h3v3h-3zM794 75h3v3h-3z"/><path fill="#4fb043" d="M791 78h12v3h-12zM794 81h6v3h-6z"/><path fill="#23662d" d="M803 78h6v3h-6zM800 81h9v3h-9z"/><path fill="#a8744a" d="M791 84h6v3h-6z"/><path fill="#6a4328" d="M797 84h12v3h-12z"/><path fill="#1c1310" d="M788 87h3v3h-3zM797 87h3v3h-3zM809 87h3v3h-3z"/><path fill="#6e4a32" d="M791 87h6v3h-6z"/><path fill="#3a2516" d="M800 87h9v3h-9z"/><path fill="#ffc94a" d="M833 60h6v3h-6zM830 63h3v3h-3zM839 63h3v3h-3zM833 81h6v3h-6z"/><path fill="#8a3a20" d="M824 63h3v3h-3zM845 63h3v3h-3zM824 66h3v3h-3zM845 66h3v3h-3z"/><path fill="#fff1a8" d="M833 63h6v3h-6zM833 66h6v3h-6z"/><path fill="#4a1408" d="M827 66h3v3h-3zM842 66h3v3h-3zM824 69h3v3h-3zM845 69h3v3h-3zM824 72h3v3h-3zM845 72h3v3h-3zM824 75h3v3h-3zM845 75h3v3h-3zM827 78h3v3h-3zM842 78h3v3h-3zM830 81h3v3h-3zM839 81h3v3h-3z"/><path fill="#ff9a3a" d="M830 66h3v3h-3zM839 66h3v3h-3zM827 69h3v3h-3z"/><path fill="#e8562a" d="M830 69h12v3h-12zM833 72h3v3h-3zM827 75h3v3h-3zM836 75h6v3h-6zM830 78h6v3h-6z"/><path fill="#b2341a" d="M842 69h3v3h-3zM842 72h3v3h-3zM842 75h3v3h-3zM836 78h6v3h-6z"/><path fill="#fff6d8" d="M827 72h3v3h-3zM836 72h3v3h-3z"/><path fill="#2a0e08" d="M830 72h3v3h-3zM839 72h3v3h-3z"/><path fill="#5a1408" d="M830 75h6v3h-6z"/><rect x="12" y="106" width="876" height="64" rx="6" fill="#faf9f5"/><rect x="510" y="106" width="378" height="64" rx="6" fill="#262624"/><text x="28" y="136" font-family="sans-serif" font-size="13" fill="#3d3929" text-anchor="start">Baby slime</text><text x="28" y="152" font-family="sans-serif" font-size="11" fill="#8a8578" text-anchor="start">bounces</text><path fill="#8a2a52" d="M214 126h6v6h-6zM208 132h6v6h-6zM220 132h6v6h-6zM202 138h6v6h-6zM226 138h6v6h-6zM196 144h6v6h-6zM232 144h6v6h-6zM190 150h6v6h-6zM232 150h6v6h-6zM196 156h36v6h-36z"/><path fill="#f27aa6" d="M214 132h6v6h-6zM214 138h12v6h-12zM202 144h6v6h-6zM220 144h12v6h-12zM196 150h24v6h-24z"/><path fill="#ffe0ec" d="M208 138h6v6h-6z"/><path fill="#ffffff" d="M208 144h6v6h-6z"/><path fill="#3a1024" d="M214 144h6v6h-6z"/><path fill="#d2508a" d="M220 150h12v6h-12z"/><path fill="#8a2a52" d="M278 114h6v6h-6zM272 120h6v6h-6zM284 120h6v6h-6zM266 126h6v6h-6zM290 126h6v6h-6zM266 132h6v6h-6zM290 132h6v6h-6zM266 138h6v6h-6zM290 138h6v6h-6zM266 144h6v6h-6zM290 144h6v6h-6zM272 150h18v6h-18z"/><path fill="#f27aa6" d="M278 120h6v6h-6zM278 126h12v6h-12zM284 132h6v6h-6zM272 138h18v6h-18zM272 144h6v6h-6z"/><path fill="#ffe0ec" d="M272 126h6v6h-6z"/><path fill="#ffffff" d="M272 132h6v6h-6z"/><path fill="#3a1024" d="M278 132h6v6h-6z"/><path fill="#d2508a" d="M278 144h12v6h-12z"/><path fill="#8a2a52" d="M354 120h12v6h-12zM348 126h6v6h-6zM360 126h6v6h-6zM330 132h18v6h-18zM360 132h6v6h-6zM324 138h6v6h-6zM360 138h6v6h-6zM318 144h6v6h-6zM360 144h6v6h-6zM318 150h6v6h-6zM360 150h6v6h-6zM324 156h36v6h-36z"/><path fill="#f27aa6" d="M354 126h6v6h-6zM348 132h12v6h-12zM336 138h24v6h-24zM336 144h18v6h-18zM336 150h12v6h-12z"/><path fill="#ffe0ec" d="M330 138h6v6h-6z"/><path fill="#ffffff" d="M324 144h6v6h-6z"/><path fill="#3a1024" d="M330 144h6v6h-6z"/><path fill="#d2508a" d="M354 144h6v6h-6zM348 150h12v6h-12z"/><path fill="#5a1430" d="M324 150h12v6h-12z"/><path fill="#8a2a52" d="M558 126h6v6h-6zM552 132h6v6h-6zM564 132h6v6h-6zM546 138h6v6h-6zM570 138h6v6h-6zM540 144h6v6h-6zM576 144h6v6h-6zM534 150h6v6h-6zM576 150h6v6h-6zM540 156h36v6h-36z"/><path fill="#f27aa6" d="M558 132h6v6h-6zM558 138h12v6h-12zM546 144h6v6h-6zM564 144h12v6h-12zM540 150h24v6h-24z"/><path fill="#ffe0ec" d="M552 138h6v6h-6z"/><path fill="#ffffff" d="M552 144h6v6h-6z"/><path fill="#3a1024" d="M558 144h6v6h-6z"/><path fill="#d2508a" d="M564 150h12v6h-12z"/><path fill="#8a2a52" d="M622 114h6v6h-6zM616 120h6v6h-6zM628 120h6v6h-6zM610 126h6v6h-6zM634 126h6v6h-6zM610 132h6v6h-6zM634 132h6v6h-6zM610 138h6v6h-6zM634 138h6v6h-6zM610 144h6v6h-6zM634 144h6v6h-6zM616 150h18v6h-18z"/><path fill="#f27aa6" d="M622 120h6v6h-6zM622 126h12v6h-12zM628 132h6v6h-6zM616 138h18v6h-18zM616 144h6v6h-6z"/><path fill="#ffe0ec" d="M616 126h6v6h-6z"/><path fill="#ffffff" d="M616 132h6v6h-6z"/><path fill="#3a1024" d="M622 132h6v6h-6z"/><path fill="#d2508a" d="M622 144h12v6h-12z"/><path fill="#8a2a52" d="M698 120h12v6h-12zM692 126h6v6h-6zM704 126h6v6h-6zM674 132h18v6h-18zM704 132h6v6h-6zM668 138h6v6h-6zM704 138h6v6h-6zM662 144h6v6h-6zM704 144h6v6h-6zM662 150h6v6h-6zM704 150h6v6h-6zM668 156h36v6h-36z"/><path fill="#f27aa6" d="M698 126h6v6h-6zM692 132h12v6h-12zM680 138h24v6h-24zM680 144h18v6h-18zM680 150h12v6h-12z"/><path fill="#ffe0ec" d="M674 138h6v6h-6z"/><path fill="#ffffff" d="M668 144h6v6h-6z"/><path fill="#3a1024" d="M674 144h6v6h-6z"/><path fill="#d2508a" d="M698 144h6v6h-6zM692 150h12v6h-12z"/><path fill="#5a1430" d="M668 150h12v6h-12z"/><path fill="#1c1310" d="M393 132h18v3h-18zM390 135h3v3h-3zM411 135h3v3h-3zM387 138h3v3h-3zM414 138h3v3h-3zM387 141h3v3h-3zM414 141h3v3h-3zM387 144h3v3h-3zM414 144h3v3h-3zM390 147h3v3h-3zM411 147h3v3h-3z"/><path fill="#9c6436" d="M393 135h15v3h-15z"/><path fill="#5e3720" d="M408 135h3v3h-3zM408 138h6v3h-6z"/><path fill="#8a5530" d="M390 138h3v3h-3z"/><path fill="#8a5530" d="M393 138h15v3h-15z"/><path fill="#f3c9a0" d="M390 141h3v3h-3zM399 141h6v3h-6zM390 144h3v3h-3zM399 144h6v3h-6zM393 147h3v3h-3zM399 147h9v3h-9zM393 153h3v3h-3z"/><path fill="#ffffff" d="M393 141h3v3h-3z"/><path fill="#1e1b22" d="M396 141h3v3h-3zM393 144h6v3h-6z"/><path fill="#8a5530" d="M405 141h6v3h-6zM408 144h3v3h-3z"/><path fill="#5e3720" d="M411 141h3v3h-3zM411 144h3v3h-3zM408 147h3v3h-3z"/><path fill="#d99d76" d="M405 144h3v3h-3zM396 147h3v3h-3z"/><path fill="#4fb043" d="M393 150h12v3h-12zM396 153h6v3h-6z"/><path fill="#23662d" d="M405 150h6v3h-6zM402 153h9v3h-9z"/><path fill="#a8744a" d="M393 156h6v3h-6z"/><path fill="#6a4328" d="M399 156h12v3h-12z"/><path fill="#1c1310" d="M390 159h3v3h-3zM399 159h3v3h-3zM411 159h3v3h-3z"/><path fill="#6e4a32" d="M393 159h6v3h-6z"/><path fill="#3a2516" d="M402 159h9v3h-9z"/><path fill="#8a2a52" d="M438 144h3v3h-3zM435 147h3v3h-3zM441 147h3v3h-3zM432 150h3v3h-3zM444 150h3v3h-3zM429 153h3v3h-3zM447 153h3v3h-3zM426 156h3v3h-3zM447 156h3v3h-3zM429 159h18v3h-18z"/><path fill="#f27aa6" d="M438 147h3v3h-3zM438 150h6v3h-6zM432 153h3v3h-3zM441 153h6v3h-6zM429 156h12v3h-12z"/><path fill="#ffe0ec" d="M435 150h3v3h-3z"/><path fill="#ffffff" d="M435 153h3v3h-3z"/><path fill="#3a1024" d="M438 153h3v3h-3z"/><path fill="#d2508a" d="M441 156h6v3h-6z"/><path fill="#1c1310" d="M791 132h18v3h-18zM788 135h3v3h-3zM809 135h3v3h-3zM785 138h3v3h-3zM812 138h3v3h-3zM785 141h3v3h-3zM812 141h3v3h-3zM785 144h3v3h-3zM812 144h3v3h-3zM788 147h3v3h-3zM809 147h3v3h-3z"/><path fill="#9c6436" d="M791 135h15v3h-15z"/><path fill="#5e3720" d="M806 135h3v3h-3zM806 138h6v3h-6z"/><path fill="#8a5530" d="M788 138h3v3h-3z"/><path fill="#8a5530" d="M791 138h15v3h-15z"/><path fill="#f3c9a0" d="M788 141h3v3h-3zM797 141h6v3h-6zM788 144h3v3h-3zM797 144h6v3h-6zM791 147h3v3h-3zM797 147h9v3h-9zM791 153h3v3h-3z"/><path fill="#ffffff" d="M791 141h3v3h-3z"/><path fill="#1e1b22" d="M794 141h3v3h-3zM791 144h6v3h-6z"/><path fill="#8a5530" d="M803 141h6v3h-6zM806 144h3v3h-3z"/><path fill="#5e3720" d="M809 141h3v3h-3zM809 144h3v3h-3zM806 147h3v3h-3z"/><path fill="#d99d76" d="M803 144h3v3h-3zM794 147h3v3h-3z"/><path fill="#4fb043" d="M791 150h12v3h-12zM794 153h6v3h-6z"/><path fill="#23662d" d="M803 150h6v3h-6zM800 153h9v3h-9z"/><path fill="#a8744a" d="M791 156h6v3h-6z"/><path fill="#6a4328" d="M797 156h12v3h-12z"/><path fill="#1c1310" d="M788 159h3v3h-3zM797 159h3v3h-3zM809 159h3v3h-3z"/><path fill="#6e4a32" d="M791 159h6v3h-6z"/><path fill="#3a2516" d="M800 159h9v3h-9z"/><path fill="#8a2a52" d="M836 144h3v3h-3zM833 147h3v3h-3zM839 147h3v3h-3zM830 150h3v3h-3zM842 150h3v3h-3zM827 153h3v3h-3zM845 153h3v3h-3zM824 156h3v3h-3zM845 156h3v3h-3zM827 159h18v3h-18z"/><path fill="#f27aa6" d="M836 147h3v3h-3zM836 150h6v3h-6zM830 153h3v3h-3zM839 153h6v3h-6zM827 156h12v3h-12z"/><path fill="#ffe0ec" d="M833 150h3v3h-3z"/><path fill="#ffffff" d="M833 153h3v3h-3z"/><path fill="#3a1024" d="M836 153h3v3h-3z"/><path fill="#d2508a" d="M839 156h6v3h-6z"/><rect x="12" y="178" width="876" height="64" rx="6" fill="#faf9f5"/><rect x="510" y="178" width="378" height="64" rx="6" fill="#262624"/><text x="28" y="208" font-family="sans-serif" font-size="13" fill="#3d3929" text-anchor="start">Hornet</text><text x="28" y="224" font-family="sans-serif" font-size="11" fill="#8a8578" text-anchor="start">flies</text><path fill="#a8c4d8" d="M208 186h12v6h-12zM202 192h6v6h-6zM220 192h6v6h-6zM214 198h6v6h-6z"/><path fill="#eef6ff" d="M208 192h12v6h-12z"/><path fill="#2a1a0a" d="M196 198h18v6h-18zM220 198h12v6h-12zM190 204h6v6h-6zM232 204h6v6h-6zM190 210h6v6h-6zM196 216h6v6h-6zM226 216h6v6h-6zM202 222h24v6h-24z"/><path fill="#ffffff" d="M196 204h6v6h-6z"/><path fill="#161012" d="M202 204h6v6h-6zM196 210h12v6h-12z"/><path fill="#f2b630" d="M208 204h12v6h-12zM208 210h6v6h-6zM208 216h12v6h-12z"/><path fill="#3a2a14" d="M220 204h6v6h-6zM220 210h6v6h-6zM220 216h6v6h-6z"/><path fill="#c0801a" d="M226 204h6v6h-6zM214 210h6v6h-6zM226 210h6v6h-6z"/><path fill="#4a3418" d="M232 210h6v6h-6z"/><path fill="#6a4a20" d="M202 216h6v6h-6z"/><path fill="#2a1a0a" d="M260 198h36v6h-36zM254 204h6v6h-6zM296 204h6v6h-6zM254 210h6v6h-6zM260 216h6v6h-6zM290 216h6v6h-6zM266 222h24v6h-24z"/><path fill="#ffffff" d="M260 204h6v6h-6z"/><path fill="#161012" d="M266 204h6v6h-6zM260 210h12v6h-12z"/><path fill="#f2b630" d="M272 204h6v6h-6zM272 210h6v6h-6zM272 216h12v6h-12z"/><path fill="#a8c4d8" d="M278 204h6v6h-6zM290 204h6v6h-6zM290 210h6v6h-6z"/><path fill="#eef6ff" d="M284 204h6v6h-6zM284 210h6v6h-6z"/><path fill="#c0801a" d="M278 210h6v6h-6z"/><path fill="#4a3418" d="M296 210h6v6h-6z"/><path fill="#6a4a20" d="M266 216h6v6h-6z"/><path fill="#3a2a14" d="M284 216h6v6h-6z"/><path fill="#a8c4d8" d="M330 186h12v6h-12zM324 192h6v6h-6zM342 192h6v6h-6zM336 198h6v6h-6z"/><path fill="#eef6ff" d="M330 192h12v6h-12z"/><path fill="#2a1a0a" d="M324 198h12v6h-12zM342 198h18v6h-18zM318 204h6v6h-6zM360 204h6v6h-6zM318 210h6v6h-6zM360 210h6v6h-6zM324 216h6v6h-6zM336 216h6v6h-6zM354 216h6v6h-6zM336 222h18v6h-18z"/><path fill="#ffffff" d="M324 204h6v6h-6z"/><path fill="#161012" d="M330 204h6v6h-6zM324 210h12v6h-12z"/><path fill="#f2b630" d="M336 204h12v6h-12zM336 210h6v6h-6z"/><path fill="#3a2a14" d="M348 204h6v6h-6zM348 210h6v6h-6zM342 216h6v6h-6z"/><path fill="#c0801a" d="M354 204h6v6h-6zM342 210h6v6h-6zM354 210h6v6h-6zM348 216h6v6h-6z"/><path fill="#6a4a20" d="M330 216h6v6h-6z"/><path fill="#4a3418" d="M330 222h6v6h-6zM324 228h6v6h-6z"/><path fill="#a8c4d8" d="M552 186h12v6h-12zM546 192h6v6h-6zM564 192h6v6h-6zM558 198h6v6h-6z"/><path fill="#eef6ff" d="M552 192h12v6h-12z"/><path fill="#2a1a0a" d="M540 198h18v6h-18zM564 198h12v6h-12zM534 204h6v6h-6zM576 204h6v6h-6zM534 210h6v6h-6zM540 216h6v6h-6zM570 216h6v6h-6zM546 222h24v6h-24z"/><path fill="#ffffff" d="M540 204h6v6h-6z"/><path fill="#161012" d="M546 204h6v6h-6zM540 210h12v6h-12z"/><path fill="#f2b630" d="M552 204h12v6h-12zM552 210h6v6h-6zM552 216h12v6h-12z"/><path fill="#3a2a14" d="M564 204h6v6h-6zM564 210h6v6h-6zM564 216h6v6h-6z"/><path fill="#c0801a" d="M570 204h6v6h-6zM558 210h6v6h-6zM570 210h6v6h-6z"/><path fill="#4a3418" d="M576 210h6v6h-6z"/><path fill="#6a4a20" d="M546 216h6v6h-6z"/><path fill="#2a1a0a" d="M604 198h36v6h-36zM598 204h6v6h-6zM640 204h6v6h-6zM598 210h6v6h-6zM604 216h6v6h-6zM634 216h6v6h-6zM610 222h24v6h-24z"/><path fill="#ffffff" d="M604 204h6v6h-6z"/><path fill="#161012" d="M610 204h6v6h-6zM604 210h12v6h-12z"/><path fill="#f2b630" d="M616 204h6v6h-6zM616 210h6v6h-6zM616 216h12v6h-12z"/><path fill="#a8c4d8" d="M622 204h6v6h-6zM634 204h6v6h-6zM634 210h6v6h-6z"/><path fill="#eef6ff" d="M628 204h6v6h-6zM628 210h6v6h-6z"/><path fill="#c0801a" d="M622 210h6v6h-6z"/><path fill="#4a3418" d="M640 210h6v6h-6z"/><path fill="#6a4a20" d="M610 216h6v6h-6z"/><path fill="#3a2a14" d="M628 216h6v6h-6z"/><path fill="#a8c4d8" d="M674 186h12v6h-12zM668 192h6v6h-6zM686 192h6v6h-6zM680 198h6v6h-6z"/><path fill="#eef6ff" d="M674 192h12v6h-12z"/><path fill="#2a1a0a" d="M668 198h12v6h-12zM686 198h18v6h-18zM662 204h6v6h-6zM704 204h6v6h-6zM662 210h6v6h-6zM704 210h6v6h-6zM668 216h6v6h-6zM680 216h6v6h-6zM698 216h6v6h-6zM680 222h18v6h-18z"/><path fill="#ffffff" d="M668 204h6v6h-6z"/><path fill="#161012" d="M674 204h6v6h-6zM668 210h12v6h-12z"/><path fill="#f2b630" d="M680 204h12v6h-12zM680 210h6v6h-6z"/><path fill="#3a2a14" d="M692 204h6v6h-6zM692 210h6v6h-6zM686 216h6v6h-6z"/><path fill="#c0801a" d="M698 204h6v6h-6zM686 210h6v6h-6zM698 210h6v6h-6zM692 216h6v6h-6z"/><path fill="#6a4a20" d="M674 216h6v6h-6z"/><path fill="#4a3418" d="M674 222h6v6h-6zM668 228h6v6h-6z"/><path fill="#1c1310" d="M393 204h18v3h-18zM390 207h3v3h-3zM411 207h3v3h-3zM387 210h3v3h-3zM414 210h3v3h-3zM387 213h3v3h-3zM414 213h3v3h-3zM387 216h3v3h-3zM414 216h3v3h-3zM390 219h3v3h-3zM411 219h3v3h-3z"/><path fill="#9c6436" d="M393 207h15v3h-15z"/><path fill="#5e3720" d="M408 207h3v3h-3zM408 210h6v3h-6z"/><path fill="#8a5530" d="M390 210h3v3h-3z"/><path fill="#8a5530" d="M393 210h15v3h-15z"/><path fill="#f3c9a0" d="M390 213h3v3h-3zM399 213h6v3h-6zM390 216h3v3h-3zM399 216h6v3h-6zM393 219h3v3h-3zM399 219h9v3h-9zM393 225h3v3h-3z"/><path fill="#ffffff" d="M393 213h3v3h-3z"/><path fill="#1e1b22" d="M396 213h3v3h-3zM393 216h6v3h-6z"/><path fill="#8a5530" d="M405 213h6v3h-6zM408 216h3v3h-3z"/><path fill="#5e3720" d="M411 213h3v3h-3zM411 216h3v3h-3zM408 219h3v3h-3z"/><path fill="#d99d76" d="M405 216h3v3h-3zM396 219h3v3h-3z"/><path fill="#4fb043" d="M393 222h12v3h-12zM396 225h6v3h-6z"/><path fill="#23662d" d="M405 222h6v3h-6zM402 225h9v3h-9z"/><path fill="#a8744a" d="M393 228h6v3h-6z"/><path fill="#6a4328" d="M399 228h12v3h-12z"/><path fill="#1c1310" d="M390 231h3v3h-3zM399 231h3v3h-3zM411 231h3v3h-3z"/><path fill="#6e4a32" d="M393 231h6v3h-6z"/><path fill="#3a2516" d="M402 231h9v3h-9z"/><path fill="#a8c4d8" d="M435 204h6v3h-6zM432 207h3v3h-3zM441 207h3v3h-3zM438 210h3v3h-3z"/><path fill="#eef6ff" d="M435 207h6v3h-6z"/><path fill="#2a1a0a" d="M429 210h9v3h-9zM441 210h6v3h-6zM426 213h3v3h-3zM447 213h3v3h-3zM426 216h3v3h-3zM429 219h3v3h-3zM444 219h3v3h-3zM432 222h12v3h-12z"/><path fill="#ffffff" d="M429 213h3v3h-3z"/><path fill="#161012" d="M432 213h3v3h-3zM429 216h6v3h-6z"/><path fill="#f2b630" d="M435 213h6v3h-6zM435 216h3v3h-3zM435 219h6v3h-6z"/><path fill="#3a2a14" d="M441 213h3v3h-3zM441 216h3v3h-3zM441 219h3v3h-3z"/><path fill="#c0801a" d="M444 213h3v3h-3zM438 216h3v3h-3zM444 216h3v3h-3z"/><path fill="#4a3418" d="M447 216h3v3h-3z"/><path fill="#6a4a20" d="M432 219h3v3h-3z"/><path fill="#1c1310" d="M791 204h18v3h-18zM788 207h3v3h-3zM809 207h3v3h-3zM785 210h3v3h-3zM812 210h3v3h-3zM785 213h3v3h-3zM812 213h3v3h-3zM785 216h3v3h-3zM812 216h3v3h-3zM788 219h3v3h-3zM809 219h3v3h-3z"/><path fill="#9c6436" d="M791 207h15v3h-15z"/><path fill="#5e3720" d="M806 207h3v3h-3zM806 210h6v3h-6z"/><path fill="#8a5530" d="M788 210h3v3h-3z"/><path fill="#8a5530" d="M791 210h15v3h-15z"/><path fill="#f3c9a0" d="M788 213h3v3h-3zM797 213h6v3h-6zM788 216h3v3h-3zM797 216h6v3h-6zM791 219h3v3h-3zM797 219h9v3h-9zM791 225h3v3h-3z"/><path fill="#ffffff" d="M791 213h3v3h-3z"/><path fill="#1e1b22" d="M794 213h3v3h-3zM791 216h6v3h-6z"/><path fill="#8a5530" d="M803 213h6v3h-6zM806 216h3v3h-3z"/><path fill="#5e3720" d="M809 213h3v3h-3zM809 216h3v3h-3zM806 219h3v3h-3z"/><path fill="#d99d76" d="M803 216h3v3h-3zM794 219h3v3h-3z"/><path fill="#4fb043" d="M791 222h12v3h-12zM794 225h6v3h-6z"/><path fill="#23662d" d="M803 222h6v3h-6zM800 225h9v3h-9z"/><path fill="#a8744a" d="M791 228h6v3h-6z"/><path fill="#6a4328" d="M797 228h12v3h-12z"/><path fill="#1c1310" d="M788 231h3v3h-3zM797 231h3v3h-3zM809 231h3v3h-3z"/><path fill="#6e4a32" d="M791 231h6v3h-6z"/><path fill="#3a2516" d="M800 231h9v3h-9z"/><path fill="#a8c4d8" d="M833 204h6v3h-6zM830 207h3v3h-3zM839 207h3v3h-3zM836 210h3v3h-3z"/><path fill="#eef6ff" d="M833 207h6v3h-6z"/><path fill="#2a1a0a" d="M827 210h9v3h-9zM839 210h6v3h-6zM824 213h3v3h-3zM845 213h3v3h-3zM824 216h3v3h-3zM827 219h3v3h-3zM842 219h3v3h-3zM830 222h12v3h-12z"/><path fill="#ffffff" d="M827 213h3v3h-3z"/><path fill="#161012" d="M830 213h3v3h-3zM827 216h6v3h-6z"/><path fill="#f2b630" d="M833 213h6v3h-6zM833 216h3v3h-3zM833 219h6v3h-6z"/><path fill="#3a2a14" d="M839 213h3v3h-3zM839 216h3v3h-3zM839 219h3v3h-3z"/><path fill="#c0801a" d="M842 213h3v3h-3zM836 216h3v3h-3zM842 216h3v3h-3z"/><path fill="#4a3418" d="M845 216h3v3h-3z"/><path fill="#6a4a20" d="M830 219h3v3h-3z"/><rect x="12" y="250" width="876" height="64" rx="6" fill="#faf9f5"/><rect x="510" y="250" width="378" height="64" rx="6" fill="#262624"/><text x="28" y="280" font-family="sans-serif" font-size="13" fill="#3d3929" text-anchor="start">Spider</text><text x="28" y="296" font-family="sans-serif" font-size="11" fill="#8a8578" text-anchor="start">walks</text><path fill="#9a6440" d="M196 264h6v6h-6zM232 264h6v6h-6zM190 270h6v6h-6zM232 270h6v6h-6zM232 288h6v6h-6zM190 294h6v6h-6zM202 294h6v6h-6zM220 294h6v6h-6zM232 294h6v6h-6zM196 300h6v6h-6zM208 300h6v6h-6zM226 300h6v6h-6z"/><path fill="#1c1418" d="M208 264h18v6h-18zM202 270h6v6h-6zM226 270h6v6h-6zM196 276h12v6h-12zM226 276h6v6h-6zM190 282h6v6h-6zM226 282h6v6h-6zM190 288h6v6h-6zM208 288h18v6h-18z"/><path fill="#b0703f" d="M208 270h6v6h-6zM208 276h6v6h-6zM220 276h6v6h-6zM208 282h18v6h-18z"/><path fill="#f0dcb0" d="M214 270h6v6h-6zM214 276h6v6h-6z"/><path fill="#e09a5a" d="M220 270h6v6h-6z"/><path fill="#ffffff" d="M196 282h6v6h-6z"/><path fill="#101014" d="M202 282h6v6h-6zM196 288h12v6h-12z"/><path fill="#9a6440" d="M254 264h6v6h-6zM260 270h6v6h-6zM296 270h6v6h-6zM296 276h6v6h-6zM290 288h6v6h-6zM260 294h6v6h-6zM272 294h6v6h-6zM284 294h6v6h-6zM296 294h6v6h-6zM254 300h6v6h-6zM278 300h6v6h-6z"/><path fill="#1c1418" d="M272 264h18v6h-18zM266 270h6v6h-6zM290 270h6v6h-6zM260 276h12v6h-12zM290 276h6v6h-6zM254 282h6v6h-6zM290 282h6v6h-6zM254 288h6v6h-6zM272 288h18v6h-18z"/><path fill="#b0703f" d="M272 270h6v6h-6zM272 276h6v6h-6zM284 276h6v6h-6zM272 282h18v6h-18z"/><path fill="#f0dcb0" d="M278 270h6v6h-6zM278 276h6v6h-6z"/><path fill="#e09a5a" d="M284 270h6v6h-6z"/><path fill="#ffffff" d="M260 282h6v6h-6z"/><path fill="#101014" d="M266 282h6v6h-6zM260 288h12v6h-12z"/><path fill="#9a6440" d="M318 258h6v6h-6zM324 264h6v6h-6zM360 264h6v6h-6zM360 270h6v6h-6zM318 276h6v6h-6zM360 288h6v6h-6zM336 294h6v6h-6zM348 294h6v6h-6zM360 294h6v6h-6z"/><path fill="#1c1418" d="M336 264h18v6h-18zM330 270h6v6h-6zM354 270h6v6h-6zM324 276h12v6h-12zM354 276h6v6h-6zM318 282h6v6h-6zM354 282h6v6h-6zM318 288h6v6h-6zM336 288h18v6h-18z"/><path fill="#b0703f" d="M336 270h6v6h-6zM336 276h6v6h-6zM348 276h6v6h-6zM336 282h18v6h-18z"/><path fill="#f0dcb0" d="M342 270h6v6h-6zM342 276h6v6h-6z"/><path fill="#e09a5a" d="M348 270h6v6h-6z"/><path fill="#ffffff" d="M324 282h6v6h-6z"/><path fill="#101014" d="M330 282h6v6h-6zM324 288h12v6h-12z"/><path fill="#f2ece0" d="M318 294h12v6h-12z"/><path fill="#9a6440" d="M540 264h6v6h-6zM576 264h6v6h-6zM534 270h6v6h-6zM576 270h6v6h-6zM576 288h6v6h-6zM534 294h6v6h-6zM546 294h6v6h-6zM564 294h6v6h-6zM576 294h6v6h-6zM540 300h6v6h-6zM552 300h6v6h-6zM570 300h6v6h-6z"/><path fill="#1c1418" d="M552 264h18v6h-18zM546 270h6v6h-6zM570 270h6v6h-6zM540 276h12v6h-12zM570 276h6v6h-6zM534 282h6v6h-6zM570 282h6v6h-6zM534 288h6v6h-6zM552 288h18v6h-18z"/><path fill="#b0703f" d="M552 270h6v6h-6zM552 276h6v6h-6zM564 276h6v6h-6zM552 282h18v6h-18z"/><path fill="#f0dcb0" d="M558 270h6v6h-6zM558 276h6v6h-6z"/><path fill="#e09a5a" d="M564 270h6v6h-6z"/><path fill="#ffffff" d="M540 282h6v6h-6z"/><path fill="#101014" d="M546 282h6v6h-6zM540 288h12v6h-12z"/><path fill="#9a6440" d="M598 264h6v6h-6zM604 270h6v6h-6zM640 270h6v6h-6zM640 276h6v6h-6zM634 288h6v6h-6zM604 294h6v6h-6zM616 294h6v6h-6zM628 294h6v6h-6zM640 294h6v6h-6zM598 300h6v6h-6zM622 300h6v6h-6z"/><path fill="#1c1418" d="M616 264h18v6h-18zM610 270h6v6h-6zM634 270h6v6h-6zM604 276h12v6h-12zM634 276h6v6h-6zM598 282h6v6h-6zM634 282h6v6h-6zM598 288h6v6h-6zM616 288h18v6h-18z"/><path fill="#b0703f" d="M616 270h6v6h-6zM616 276h6v6h-6zM628 276h6v6h-6zM616 282h18v6h-18z"/><path fill="#f0dcb0" d="M622 270h6v6h-6zM622 276h6v6h-6z"/><path fill="#e09a5a" d="M628 270h6v6h-6z"/><path fill="#ffffff" d="M604 282h6v6h-6z"/><path fill="#101014" d="M610 282h6v6h-6zM604 288h12v6h-12z"/><path fill="#9a6440" d="M662 258h6v6h-6zM668 264h6v6h-6zM704 264h6v6h-6zM704 270h6v6h-6zM662 276h6v6h-6zM704 288h6v6h-6zM680 294h6v6h-6zM692 294h6v6h-6zM704 294h6v6h-6z"/><path fill="#1c1418" d="M680 264h18v6h-18zM674 270h6v6h-6zM698 270h6v6h-6zM668 276h12v6h-12zM698 276h6v6h-6zM662 282h6v6h-6zM698 282h6v6h-6zM662 288h6v6h-6zM680 288h18v6h-18z"/><path fill="#b0703f" d="M680 270h6v6h-6zM680 276h6v6h-6zM692 276h6v6h-6zM680 282h18v6h-18z"/><path fill="#f0dcb0" d="M686 270h6v6h-6zM686 276h6v6h-6z"/><path fill="#e09a5a" d="M692 270h6v6h-6z"/><path fill="#ffffff" d="M668 282h6v6h-6z"/><path fill="#101014" d="M674 282h6v6h-6zM668 288h12v6h-12z"/><path fill="#f2ece0" d="M662 294h12v6h-12z"/><path fill="#1c1310" d="M393 276h18v3h-18zM390 279h3v3h-3zM411 279h3v3h-3zM387 282h3v3h-3zM414 282h3v3h-3zM387 285h3v3h-3zM414 285h3v3h-3zM387 288h3v3h-3zM414 288h3v3h-3zM390 291h3v3h-3zM411 291h3v3h-3z"/><path fill="#9c6436" d="M393 279h15v3h-15z"/><path fill="#5e3720" d="M408 279h3v3h-3zM408 282h6v3h-6z"/><path fill="#8a5530" d="M390 282h3v3h-3z"/><path fill="#8a5530" d="M393 282h15v3h-15z"/><path fill="#f3c9a0" d="M390 285h3v3h-3zM399 285h6v3h-6zM390 288h3v3h-3zM399 288h6v3h-6zM393 291h3v3h-3zM399 291h9v3h-9zM393 297h3v3h-3z"/><path fill="#ffffff" d="M393 285h3v3h-3z"/><path fill="#1e1b22" d="M396 285h3v3h-3zM393 288h6v3h-6z"/><path fill="#8a5530" d="M405 285h6v3h-6zM408 288h3v3h-3z"/><path fill="#5e3720" d="M411 285h3v3h-3zM411 288h3v3h-3zM408 291h3v3h-3z"/><path fill="#d99d76" d="M405 288h3v3h-3zM396 291h3v3h-3z"/><path fill="#4fb043" d="M393 294h12v3h-12zM396 297h6v3h-6z"/><path fill="#23662d" d="M405 294h6v3h-6zM402 297h9v3h-9z"/><path fill="#a8744a" d="M393 300h6v3h-6z"/><path fill="#6a4328" d="M399 300h12v3h-12z"/><path fill="#1c1310" d="M390 303h3v3h-3zM399 303h3v3h-3zM411 303h3v3h-3z"/><path fill="#6e4a32" d="M393 303h6v3h-6z"/><path fill="#3a2516" d="M402 303h9v3h-9z"/><path fill="#9a6440" d="M429 285h3v3h-3zM447 285h3v3h-3zM426 288h3v3h-3zM447 288h3v3h-3zM447 297h3v3h-3zM426 300h3v3h-3zM432 300h3v3h-3zM441 300h3v3h-3zM447 300h3v3h-3zM429 303h3v3h-3zM435 303h3v3h-3zM444 303h3v3h-3z"/><path fill="#1c1418" d="M435 285h9v3h-9zM432 288h3v3h-3zM444 288h3v3h-3zM429 291h6v3h-6zM444 291h3v3h-3zM426 294h3v3h-3zM444 294h3v3h-3zM426 297h3v3h-3zM435 297h9v3h-9z"/><path fill="#b0703f" d="M435 288h3v3h-3zM435 291h3v3h-3zM441 291h3v3h-3zM435 294h9v3h-9z"/><path fill="#f0dcb0" d="M438 288h3v3h-3zM438 291h3v3h-3z"/><path fill="#e09a5a" d="M441 288h3v3h-3z"/><path fill="#ffffff" d="M429 294h3v3h-3z"/><path fill="#101014" d="M432 294h3v3h-3zM429 297h6v3h-6z"/><path fill="#1c1310" d="M791 276h18v3h-18zM788 279h3v3h-3zM809 279h3v3h-3zM785 282h3v3h-3zM812 282h3v3h-3zM785 285h3v3h-3zM812 285h3v3h-3zM785 288h3v3h-3zM812 288h3v3h-3zM788 291h3v3h-3zM809 291h3v3h-3z"/><path fill="#9c6436" d="M791 279h15v3h-15z"/><path fill="#5e3720" d="M806 279h3v3h-3zM806 282h6v3h-6z"/><path fill="#8a5530" d="M788 282h3v3h-3z"/><path fill="#8a5530" d="M791 282h15v3h-15z"/><path fill="#f3c9a0" d="M788 285h3v3h-3zM797 285h6v3h-6zM788 288h3v3h-3zM797 288h6v3h-6zM791 291h3v3h-3zM797 291h9v3h-9zM791 297h3v3h-3z"/><path fill="#ffffff" d="M791 285h3v3h-3z"/><path fill="#1e1b22" d="M794 285h3v3h-3zM791 288h6v3h-6z"/><path fill="#8a5530" d="M803 285h6v3h-6zM806 288h3v3h-3z"/><path fill="#5e3720" d="M809 285h3v3h-3zM809 288h3v3h-3zM806 291h3v3h-3z"/><path fill="#d99d76" d="M803 288h3v3h-3zM794 291h3v3h-3z"/><path fill="#4fb043" d="M791 294h12v3h-12zM794 297h6v3h-6z"/><path fill="#23662d" d="M803 294h6v3h-6zM800 297h9v3h-9z"/><path fill="#a8744a" d="M791 300h6v3h-6z"/><path fill="#6a4328" d="M797 300h12v3h-12z"/><path fill="#1c1310" d="M788 303h3v3h-3zM797 303h3v3h-3zM809 303h3v3h-3z"/><path fill="#6e4a32" d="M791 303h6v3h-6z"/><path fill="#3a2516" d="M800 303h9v3h-9z"/><path fill="#9a6440" d="M827 285h3v3h-3zM845 285h3v3h-3zM824 288h3v3h-3zM845 288h3v3h-3zM845 297h3v3h-3zM824 300h3v3h-3zM830 300h3v3h-3zM839 300h3v3h-3zM845 300h3v3h-3zM827 303h3v3h-3zM833 303h3v3h-3zM842 303h3v3h-3z"/><path fill="#1c1418" d="M833 285h9v3h-9zM830 288h3v3h-3zM842 288h3v3h-3zM827 291h6v3h-6zM842 291h3v3h-3zM824 294h3v3h-3zM842 294h3v3h-3zM824 297h3v3h-3zM833 297h9v3h-9z"/><path fill="#b0703f" d="M833 288h3v3h-3zM833 291h3v3h-3zM839 291h3v3h-3zM833 294h9v3h-9z"/><path fill="#f0dcb0" d="M836 288h3v3h-3zM836 291h3v3h-3z"/><path fill="#e09a5a" d="M839 288h3v3h-3z"/><path fill="#ffffff" d="M827 294h3v3h-3z"/><path fill="#101014" d="M830 294h3v3h-3zM827 297h6v3h-6z"/><rect x="12" y="322" width="876" height="64" rx="6" fill="#faf9f5"/><rect x="510" y="322" width="378" height="64" rx="6" fill="#262624"/><text x="28" y="352" font-family="sans-serif" font-size="13" fill="#3d3929" text-anchor="start">Raven</text><text x="28" y="368" font-family="sans-serif" font-size="11" fill="#8a8578" text-anchor="start">flies</text><path fill="#0e0e18" d="M220 330h6v6h-6zM214 336h6v6h-6zM226 336h6v6h-6zM208 342h6v6h-6zM226 342h6v6h-6zM196 348h12v6h-12zM226 348h12v6h-12zM232 354h6v6h-6zM196 360h6v6h-6zM232 360h6v6h-6zM196 366h24v6h-24zM232 366h6v6h-6zM220 372h12v6h-12z"/><path fill="#6470a0" d="M220 336h6v6h-6zM220 342h6v6h-6zM220 348h6v6h-6z"/><path fill="#343858" d="M214 342h6v6h-6zM214 348h6v6h-6z"/><path fill="#484e78" d="M208 348h6v6h-6zM202 354h24v6h-24zM202 360h30v6h-30zM220 366h12v6h-12z"/><path fill="#9a9aa8" d="M190 354h6v6h-6z"/><path fill="#f2e6a8" d="M196 354h6v6h-6z"/><path fill="#7a8cc4" d="M226 354h6v6h-6z"/><path fill="#5a5a68" d="M190 360h6v6h-6z"/><path fill="#0e0e18" d="M260 348h42v6h-42zM296 354h6v6h-6zM260 360h6v6h-6zM296 360h6v6h-6zM260 366h24v6h-24zM296 366h6v6h-6zM278 372h18v6h-18z"/><path fill="#9a9aa8" d="M254 354h6v6h-6z"/><path fill="#f2e6a8" d="M260 354h6v6h-6z"/><path fill="#484e78" d="M266 354h18v6h-18zM266 360h12v6h-12zM290 366h6v6h-6z"/><path fill="#6470a0" d="M284 354h12v6h-12zM284 360h12v6h-12z"/><path fill="#5a5a68" d="M254 360h6v6h-6z"/><path fill="#343858" d="M278 360h6v6h-6zM284 366h6v6h-6z"/><path fill="#0e0e18" d="M354 330h6v6h-6zM348 336h6v6h-6zM360 336h6v6h-6zM342 342h6v6h-6zM360 342h6v6h-6zM330 348h12v6h-12zM354 348h6v6h-6zM324 354h6v6h-6zM360 354h6v6h-6zM360 360h6v6h-6zM330 366h24v6h-24zM360 366h6v6h-6zM354 372h12v6h-12z"/><path fill="#6470a0" d="M354 336h6v6h-6zM354 342h6v6h-6z"/><path fill="#343858" d="M348 342h6v6h-6zM348 348h6v6h-6z"/><path fill="#484e78" d="M342 348h6v6h-6zM336 354h18v6h-18zM330 360h30v6h-30zM354 366h6v6h-6z"/><path fill="#f2e6a8" d="M330 354h6v6h-6z"/><path fill="#7a8cc4" d="M354 354h6v6h-6z"/><path fill="#9a9aa8" d="M318 360h6v6h-6z"/><path fill="#5a5a68" d="M324 360h6v6h-6zM318 366h6v6h-6z"/><path fill="#0e0e18" d="M564 330h6v6h-6zM558 336h6v6h-6zM570 336h6v6h-6zM552 342h6v6h-6zM570 342h6v6h-6zM540 348h12v6h-12zM570 348h12v6h-12zM576 354h6v6h-6zM540 360h6v6h-6zM576 360h6v6h-6zM540 366h24v6h-24zM576 366h6v6h-6zM564 372h12v6h-12z"/><path fill="#6470a0" d="M564 336h6v6h-6zM564 342h6v6h-6zM564 348h6v6h-6z"/><path fill="#343858" d="M558 342h6v6h-6zM558 348h6v6h-6z"/><path fill="#484e78" d="M552 348h6v6h-6zM546 354h24v6h-24zM546 360h30v6h-30zM564 366h12v6h-12z"/><path fill="#9a9aa8" d="M534 354h6v6h-6z"/><path fill="#f2e6a8" d="M540 354h6v6h-6z"/><path fill="#7a8cc4" d="M570 354h6v6h-6z"/><path fill="#5a5a68" d="M534 360h6v6h-6z"/><path fill="#0e0e18" d="M604 348h42v6h-42zM640 354h6v6h-6zM604 360h6v6h-6zM640 360h6v6h-6zM604 366h24v6h-24zM640 366h6v6h-6zM622 372h18v6h-18z"/><path fill="#9a9aa8" d="M598 354h6v6h-6z"/><path fill="#f2e6a8" d="M604 354h6v6h-6z"/><path fill="#484e78" d="M610 354h18v6h-18zM610 360h12v6h-12zM634 366h6v6h-6z"/><path fill="#6470a0" d="M628 354h12v6h-12zM628 360h12v6h-12z"/><path fill="#5a5a68" d="M598 360h6v6h-6z"/><path fill="#343858" d="M622 360h6v6h-6zM628 366h6v6h-6z"/><path fill="#0e0e18" d="M698 330h6v6h-6zM692 336h6v6h-6zM704 336h6v6h-6zM686 342h6v6h-6zM704 342h6v6h-6zM674 348h12v6h-12zM698 348h6v6h-6zM668 354h6v6h-6zM704 354h6v6h-6zM704 360h6v6h-6zM674 366h24v6h-24zM704 366h6v6h-6zM698 372h12v6h-12z"/><path fill="#6470a0" d="M698 336h6v6h-6zM698 342h6v6h-6z"/><path fill="#343858" d="M692 342h6v6h-6zM692 348h6v6h-6z"/><path fill="#484e78" d="M686 348h6v6h-6zM680 354h18v6h-18zM674 360h30v6h-30zM698 366h6v6h-6z"/><path fill="#f2e6a8" d="M674 354h6v6h-6z"/><path fill="#7a8cc4" d="M698 354h6v6h-6z"/><path fill="#9a9aa8" d="M662 360h6v6h-6z"/><path fill="#5a5a68" d="M668 360h6v6h-6zM662 366h6v6h-6z"/><path fill="#1c1310" d="M393 348h18v3h-18zM390 351h3v3h-3zM411 351h3v3h-3zM387 354h3v3h-3zM414 354h3v3h-3zM387 357h3v3h-3zM414 357h3v3h-3zM387 360h3v3h-3zM414 360h3v3h-3zM390 363h3v3h-3zM411 363h3v3h-3z"/><path fill="#9c6436" d="M393 351h15v3h-15z"/><path fill="#5e3720" d="M408 351h3v3h-3zM408 354h6v3h-6z"/><path fill="#8a5530" d="M390 354h3v3h-3z"/><path fill="#8a5530" d="M393 354h15v3h-15z"/><path fill="#f3c9a0" d="M390 357h3v3h-3zM399 357h6v3h-6zM390 360h3v3h-3zM399 360h6v3h-6zM393 363h3v3h-3zM399 363h9v3h-9zM393 369h3v3h-3z"/><path fill="#ffffff" d="M393 357h3v3h-3z"/><path fill="#1e1b22" d="M396 357h3v3h-3zM393 360h6v3h-6z"/><path fill="#8a5530" d="M405 357h6v3h-6zM408 360h3v3h-3z"/><path fill="#5e3720" d="M411 357h3v3h-3zM411 360h3v3h-3zM408 363h3v3h-3z"/><path fill="#d99d76" d="M405 360h3v3h-3zM396 363h3v3h-3z"/><path fill="#4fb043" d="M393 366h12v3h-12zM396 369h6v3h-6z"/><path fill="#23662d" d="M405 366h6v3h-6zM402 369h9v3h-9z"/><path fill="#a8744a" d="M393 372h6v3h-6z"/><path fill="#6a4328" d="M399 372h12v3h-12z"/><path fill="#1c1310" d="M390 375h3v3h-3zM399 375h3v3h-3zM411 375h3v3h-3z"/><path fill="#6e4a32" d="M393 375h6v3h-6z"/><path fill="#3a2516" d="M402 375h9v3h-9z"/><path fill="#0e0e18" d="M441 348h3v3h-3zM438 351h3v3h-3zM444 351h3v3h-3zM435 354h3v3h-3zM444 354h3v3h-3zM429 357h6v3h-6zM444 357h6v3h-6zM447 360h3v3h-3zM429 363h3v3h-3zM447 363h3v3h-3zM429 366h12v3h-12zM447 366h3v3h-3zM441 369h6v3h-6z"/><path fill="#6470a0" d="M441 351h3v3h-3zM441 354h3v3h-3zM441 357h3v3h-3z"/><path fill="#343858" d="M438 354h3v3h-3zM438 357h3v3h-3z"/><path fill="#484e78" d="M435 357h3v3h-3zM432 360h12v3h-12zM432 363h15v3h-15zM441 366h6v3h-6z"/><path fill="#9a9aa8" d="M426 360h3v3h-3z"/><path fill="#f2e6a8" d="M429 360h3v3h-3z"/><path fill="#7a8cc4" d="M444 360h3v3h-3z"/><path fill="#5a5a68" d="M426 363h3v3h-3z"/><path fill="#1c1310" d="M791 348h18v3h-18zM788 351h3v3h-3zM809 351h3v3h-3zM785 354h3v3h-3zM812 354h3v3h-3zM785 357h3v3h-3zM812 357h3v3h-3zM785 360h3v3h-3zM812 360h3v3h-3zM788 363h3v3h-3zM809 363h3v3h-3z"/><path fill="#9c6436" d="M791 351h15v3h-15z"/><path fill="#5e3720" d="M806 351h3v3h-3zM806 354h6v3h-6z"/><path fill="#8a5530" d="M788 354h3v3h-3z"/><path fill="#8a5530" d="M791 354h15v3h-15z"/><path fill="#f3c9a0" d="M788 357h3v3h-3zM797 357h6v3h-6zM788 360h3v3h-3zM797 360h6v3h-6zM791 363h3v3h-3zM797 363h9v3h-9zM791 369h3v3h-3z"/><path fill="#ffffff" d="M791 357h3v3h-3z"/><path fill="#1e1b22" d="M794 357h3v3h-3zM791 360h6v3h-6z"/><path fill="#8a5530" d="M803 357h6v3h-6zM806 360h3v3h-3z"/><path fill="#5e3720" d="M809 357h3v3h-3zM809 360h3v3h-3zM806 363h3v3h-3z"/><path fill="#d99d76" d="M803 360h3v3h-3zM794 363h3v3h-3z"/><path fill="#4fb043" d="M791 366h12v3h-12zM794 369h6v3h-6z"/><path fill="#23662d" d="M803 366h6v3h-6zM800 369h9v3h-9z"/><path fill="#a8744a" d="M791 372h6v3h-6z"/><path fill="#6a4328" d="M797 372h12v3h-12z"/><path fill="#1c1310" d="M788 375h3v3h-3zM797 375h3v3h-3zM809 375h3v3h-3z"/><path fill="#6e4a32" d="M791 375h6v3h-6z"/><path fill="#3a2516" d="M800 375h9v3h-9z"/><path fill="#0e0e18" d="M839 348h3v3h-3zM836 351h3v3h-3zM842 351h3v3h-3zM833 354h3v3h-3zM842 354h3v3h-3zM827 357h6v3h-6zM842 357h6v3h-6zM845 360h3v3h-3zM827 363h3v3h-3zM845 363h3v3h-3zM827 366h12v3h-12zM845 366h3v3h-3zM839 369h6v3h-6z"/><path fill="#6470a0" d="M839 351h3v3h-3zM839 354h3v3h-3zM839 357h3v3h-3z"/><path fill="#343858" d="M836 354h3v3h-3zM836 357h3v3h-3z"/><path fill="#484e78" d="M833 357h3v3h-3zM830 360h12v3h-12zM830 363h15v3h-15zM839 366h6v3h-6z"/><path fill="#9a9aa8" d="M824 360h3v3h-3z"/><path fill="#f2e6a8" d="M827 360h3v3h-3z"/><path fill="#7a8cc4" d="M842 360h3v3h-3z"/><path fill="#5a5a68" d="M824 363h3v3h-3z"/><rect x="12" y="394" width="876" height="64" rx="6" fill="#faf9f5"/><rect x="510" y="394" width="378" height="64" rx="6" fill="#262624"/><text x="28" y="424" font-family="sans-serif" font-size="13" fill="#3d3929" text-anchor="start">Small dragon</text><text x="28" y="440" font-family="sans-serif" font-size="11" fill="#8a8578" text-anchor="start">flies</text><path fill="#f2e2b0" d="M196 402h6v6h-6z"/><path fill="#8ad8c8" d="M220 402h12v6h-12zM214 408h6v6h-6zM220 414h6v6h-6z"/><path fill="#0e2a2a" d="M190 408h6v6h-6zM202 408h6v6h-6zM232 408h6v6h-6zM190 414h6v6h-6zM214 414h6v6h-6zM226 414h6v6h-6zM190 420h6v6h-6zM226 420h6v6h-6zM196 426h12v6h-12zM232 426h6v6h-6zM202 432h6v6h-6zM226 432h6v6h-6zM202 438h6v6h-6zM214 438h6v6h-6zM232 438h6v6h-6zM208 444h6v6h-6zM226 444h6v6h-6z"/><path fill="#3cb8a0" d="M196 408h6v6h-6zM208 414h6v6h-6zM196 420h30v6h-30zM214 426h6v6h-6z"/><path fill="#2a8a78" d="M220 408h12v6h-12z"/><path fill="#ffffff" d="M196 414h6v6h-6z"/><path fill="#102020" d="M202 414h6v6h-6z"/><path fill="#f2e2b0" d="M208 426h6v6h-6zM208 432h12v6h-12z"/><path fill="#23806e" d="M220 426h12v6h-12zM220 432h6v6h-6zM232 432h6v6h-6zM208 438h6v6h-6zM220 438h12v6h-12z"/><path fill="#f2e2b0" d="M260 402h6v6h-6z"/><path fill="#0e2a2a" d="M254 408h6v6h-6zM266 408h6v6h-6zM254 414h6v6h-6zM278 414h18v6h-18zM254 420h6v6h-6zM296 420h6v6h-6zM260 426h12v6h-12zM296 426h6v6h-6zM266 432h6v6h-6zM290 432h6v6h-6zM266 438h6v6h-6zM278 438h6v6h-6zM296 438h6v6h-6zM272 444h6v6h-6zM290 444h6v6h-6z"/><path fill="#3cb8a0" d="M260 408h6v6h-6zM272 414h6v6h-6zM260 420h18v6h-18zM278 426h6v6h-6z"/><path fill="#ffffff" d="M260 414h6v6h-6z"/><path fill="#102020" d="M266 414h6v6h-6z"/><path fill="#8ad8c8" d="M278 420h18v6h-18zM284 426h6v6h-6z"/><path fill="#f2e2b0" d="M272 426h6v6h-6zM272 432h12v6h-12z"/><path fill="#2a8a78" d="M290 426h6v6h-6z"/><path fill="#23806e" d="M284 432h6v6h-6zM296 432h6v6h-6zM272 438h6v6h-6zM284 438h12v6h-12z"/><path fill="#f2e2b0" d="M324 402h6v6h-6z"/><path fill="#8ad8c8" d="M348 402h12v6h-12zM342 408h6v6h-6zM348 414h6v6h-6z"/><path fill="#0e2a2a" d="M318 408h6v6h-6zM330 408h6v6h-6zM360 408h6v6h-6zM318 414h6v6h-6zM342 414h6v6h-6zM354 414h6v6h-6zM354 420h6v6h-6zM330 426h6v6h-6zM360 426h6v6h-6zM330 432h6v6h-6zM354 432h6v6h-6zM330 438h6v6h-6zM342 438h6v6h-6zM360 438h6v6h-6zM336 444h6v6h-6zM354 444h6v6h-6z"/><path fill="#3cb8a0" d="M324 408h6v6h-6zM336 414h6v6h-6zM330 420h24v6h-24zM342 426h6v6h-6z"/><path fill="#2a8a78" d="M348 408h12v6h-12z"/><path fill="#ffffff" d="M324 414h6v6h-6z"/><path fill="#102020" d="M330 414h6v6h-6z"/><path fill="#ffe07a" d="M318 420h6v6h-6zM324 426h6v6h-6z"/><path fill="#ff8a2e" d="M324 420h6v6h-6zM318 426h6v6h-6zM318 432h6v6h-6z"/><path fill="#f2e2b0" d="M336 426h6v6h-6zM336 432h12v6h-12z"/><path fill="#23806e" d="M348 426h12v6h-12zM348 432h6v6h-6zM360 432h6v6h-6zM336 438h6v6h-6zM348 438h12v6h-12z"/><path fill="#f2e2b0" d="M540 402h6v6h-6z"/><path fill="#8ad8c8" d="M564 402h12v6h-12zM558 408h6v6h-6zM564 414h6v6h-6z"/><path fill="#0e2a2a" d="M534 408h6v6h-6zM546 408h6v6h-6zM576 408h6v6h-6zM534 414h6v6h-6zM558 414h6v6h-6zM570 414h6v6h-6zM534 420h6v6h-6zM570 420h6v6h-6zM540 426h12v6h-12zM576 426h6v6h-6zM546 432h6v6h-6zM570 432h6v6h-6zM546 438h6v6h-6zM558 438h6v6h-6zM576 438h6v6h-6zM552 444h6v6h-6zM570 444h6v6h-6z"/><path fill="#3cb8a0" d="M540 408h6v6h-6zM552 414h6v6h-6zM540 420h30v6h-30zM558 426h6v6h-6z"/><path fill="#2a8a78" d="M564 408h12v6h-12z"/><path fill="#ffffff" d="M540 414h6v6h-6z"/><path fill="#102020" d="M546 414h6v6h-6z"/><path fill="#f2e2b0" d="M552 426h6v6h-6zM552 432h12v6h-12z"/><path fill="#23806e" d="M564 426h12v6h-12zM564 432h6v6h-6zM576 432h6v6h-6zM552 438h6v6h-6zM564 438h12v6h-12z"/><path fill="#f2e2b0" d="M604 402h6v6h-6z"/><path fill="#0e2a2a" d="M598 408h6v6h-6zM610 408h6v6h-6zM598 414h6v6h-6zM622 414h18v6h-18zM598 420h6v6h-6zM640 420h6v6h-6zM604 426h12v6h-12zM640 426h6v6h-6zM610 432h6v6h-6zM634 432h6v6h-6zM610 438h6v6h-6zM622 438h6v6h-6zM640 438h6v6h-6zM616 444h6v6h-6zM634 444h6v6h-6z"/><path fill="#3cb8a0" d="M604 408h6v6h-6zM616 414h6v6h-6zM604 420h18v6h-18zM622 426h6v6h-6z"/><path fill="#ffffff" d="M604 414h6v6h-6z"/><path fill="#102020" d="M610 414h6v6h-6z"/><path fill="#8ad8c8" d="M622 420h18v6h-18zM628 426h6v6h-6z"/><path fill="#f2e2b0" d="M616 426h6v6h-6zM616 432h12v6h-12z"/><path fill="#2a8a78" d="M634 426h6v6h-6z"/><path fill="#23806e" d="M628 432h6v6h-6zM640 432h6v6h-6zM616 438h6v6h-6zM628 438h12v6h-12z"/><path fill="#f2e2b0" d="M668 402h6v6h-6z"/><path fill="#8ad8c8" d="M692 402h12v6h-12zM686 408h6v6h-6zM692 414h6v6h-6z"/><path fill="#0e2a2a" d="M662 408h6v6h-6zM674 408h6v6h-6zM704 408h6v6h-6zM662 414h6v6h-6zM686 414h6v6h-6zM698 414h6v6h-6zM698 420h6v6h-6zM674 426h6v6h-6zM704 426h6v6h-6zM674 432h6v6h-6zM698 432h6v6h-6zM674 438h6v6h-6zM686 438h6v6h-6zM704 438h6v6h-6zM680 444h6v6h-6zM698 444h6v6h-6z"/><path fill="#3cb8a0" d="M668 408h6v6h-6zM680 414h6v6h-6zM674 420h24v6h-24zM686 426h6v6h-6z"/><path fill="#2a8a78" d="M692 408h12v6h-12z"/><path fill="#ffffff" d="M668 414h6v6h-6z"/><path fill="#102020" d="M674 414h6v6h-6z"/><path fill="#ffe07a" d="M662 420h6v6h-6zM668 426h6v6h-6z"/><path fill="#ff8a2e" d="M668 420h6v6h-6zM662 426h6v6h-6zM662 432h6v6h-6z"/><path fill="#f2e2b0" d="M680 426h6v6h-6zM680 432h12v6h-12z"/><path fill="#23806e" d="M692 426h12v6h-12zM692 432h6v6h-6zM704 432h6v6h-6zM680 438h6v6h-6zM692 438h12v6h-12z"/><path fill="#1c1310" d="M393 420h18v3h-18zM390 423h3v3h-3zM411 423h3v3h-3zM387 426h3v3h-3zM414 426h3v3h-3zM387 429h3v3h-3zM414 429h3v3h-3zM387 432h3v3h-3zM414 432h3v3h-3zM390 435h3v3h-3zM411 435h3v3h-3z"/><path fill="#9c6436" d="M393 423h15v3h-15z"/><path fill="#5e3720" d="M408 423h3v3h-3zM408 426h6v3h-6z"/><path fill="#8a5530" d="M390 426h3v3h-3z"/><path fill="#8a5530" d="M393 426h15v3h-15z"/><path fill="#f3c9a0" d="M390 429h3v3h-3zM399 429h6v3h-6zM390 432h3v3h-3zM399 432h6v3h-6zM393 435h3v3h-3zM399 435h9v3h-9zM393 441h3v3h-3z"/><path fill="#ffffff" d="M393 429h3v3h-3z"/><path fill="#1e1b22" d="M396 429h3v3h-3zM393 432h6v3h-6z"/><path fill="#8a5530" d="M405 429h6v3h-6zM408 432h3v3h-3z"/><path fill="#5e3720" d="M411 429h3v3h-3zM411 432h3v3h-3zM408 435h3v3h-3z"/><path fill="#d99d76" d="M405 432h3v3h-3zM396 435h3v3h-3z"/><path fill="#4fb043" d="M393 438h12v3h-12zM396 441h6v3h-6z"/><path fill="#23662d" d="M405 438h6v3h-6zM402 441h9v3h-9z"/><path fill="#a8744a" d="M393 444h6v3h-6z"/><path fill="#6a4328" d="M399 444h12v3h-12z"/><path fill="#1c1310" d="M390 447h3v3h-3zM399 447h3v3h-3zM411 447h3v3h-3z"/><path fill="#6e4a32" d="M393 447h6v3h-6z"/><path fill="#3a2516" d="M402 447h9v3h-9z"/><path fill="#f2e2b0" d="M429 420h3v3h-3z"/><path fill="#8ad8c8" d="M441 420h6v3h-6zM438 423h3v3h-3zM441 426h3v3h-3z"/><path fill="#0e2a2a" d="M426 423h3v3h-3zM432 423h3v3h-3zM447 423h3v3h-3zM426 426h3v3h-3zM438 426h3v3h-3zM444 426h3v3h-3zM426 429h3v3h-3zM444 429h3v3h-3zM429 432h6v3h-6zM447 432h3v3h-3zM432 435h3v3h-3zM444 435h3v3h-3zM432 438h3v3h-3zM438 438h3v3h-3zM447 438h3v3h-3zM435 441h3v3h-3zM444 441h3v3h-3z"/><path fill="#3cb8a0" d="M429 423h3v3h-3zM435 426h3v3h-3zM429 429h15v3h-15zM438 432h3v3h-3z"/><path fill="#2a8a78" d="M441 423h6v3h-6z"/><path fill="#ffffff" d="M429 426h3v3h-3z"/><path fill="#102020" d="M432 426h3v3h-3z"/><path fill="#f2e2b0" d="M435 432h3v3h-3zM435 435h6v3h-6z"/><path fill="#23806e" d="M441 432h6v3h-6zM441 435h3v3h-3zM447 435h3v3h-3zM435 438h3v3h-3zM441 438h6v3h-6z"/><path fill="#1c1310" d="M791 420h18v3h-18zM788 423h3v3h-3zM809 423h3v3h-3zM785 426h3v3h-3zM812 426h3v3h-3zM785 429h3v3h-3zM812 429h3v3h-3zM785 432h3v3h-3zM812 432h3v3h-3zM788 435h3v3h-3zM809 435h3v3h-3z"/><path fill="#9c6436" d="M791 423h15v3h-15z"/><path fill="#5e3720" d="M806 423h3v3h-3zM806 426h6v3h-6z"/><path fill="#8a5530" d="M788 426h3v3h-3z"/><path fill="#8a5530" d="M791 426h15v3h-15z"/><path fill="#f3c9a0" d="M788 429h3v3h-3zM797 429h6v3h-6zM788 432h3v3h-3zM797 432h6v3h-6zM791 435h3v3h-3zM797 435h9v3h-9zM791 441h3v3h-3z"/><path fill="#ffffff" d="M791 429h3v3h-3z"/><path fill="#1e1b22" d="M794 429h3v3h-3zM791 432h6v3h-6z"/><path fill="#8a5530" d="M803 429h6v3h-6zM806 432h3v3h-3z"/><path fill="#5e3720" d="M809 429h3v3h-3zM809 432h3v3h-3zM806 435h3v3h-3z"/><path fill="#d99d76" d="M803 432h3v3h-3zM794 435h3v3h-3z"/><path fill="#4fb043" d="M791 438h12v3h-12zM794 441h6v3h-6z"/><path fill="#23662d" d="M803 438h6v3h-6zM800 441h9v3h-9z"/><path fill="#a8744a" d="M791 444h6v3h-6z"/><path fill="#6a4328" d="M797 444h12v3h-12z"/><path fill="#1c1310" d="M788 447h3v3h-3zM797 447h3v3h-3zM809 447h3v3h-3z"/><path fill="#6e4a32" d="M791 447h6v3h-6z"/><path fill="#3a2516" d="M800 447h9v3h-9z"/><path fill="#f2e2b0" d="M827 420h3v3h-3z"/><path fill="#8ad8c8" d="M839 420h6v3h-6zM836 423h3v3h-3zM839 426h3v3h-3z"/><path fill="#0e2a2a" d="M824 423h3v3h-3zM830 423h3v3h-3zM845 423h3v3h-3zM824 426h3v3h-3zM836 426h3v3h-3zM842 426h3v3h-3zM824 429h3v3h-3zM842 429h3v3h-3zM827 432h6v3h-6zM845 432h3v3h-3zM830 435h3v3h-3zM842 435h3v3h-3zM830 438h3v3h-3zM836 438h3v3h-3zM845 438h3v3h-3zM833 441h3v3h-3zM842 441h3v3h-3z"/><path fill="#3cb8a0" d="M827 423h3v3h-3zM833 426h3v3h-3zM827 429h15v3h-15zM836 432h3v3h-3z"/><path fill="#2a8a78" d="M839 423h6v3h-6z"/><path fill="#ffffff" d="M827 426h3v3h-3z"/><path fill="#102020" d="M830 426h3v3h-3z"/><path fill="#f2e2b0" d="M833 432h3v3h-3zM833 435h6v3h-6z"/><path fill="#23806e" d="M839 432h6v3h-6zM839 435h3v3h-3zM845 435h3v3h-3zM833 438h3v3h-3zM839 438h6v3h-6z"/><text x="16" y="478" font-family="sans-serif" font-size="11" fill="#8a8578" text-anchor="start">Left: on light, then following the hero at lane size. Right: the same on dark.</text></g></svg>