<svg xmlns="http://www.w3.org/2000/svg" width="640" height="298" viewBox="0 0 640 298"><rect width="100%" height="100%" rx="12" fill="#1f1e1d"/><text x="12" y="22" font-family="-apple-system,Segoe UI,sans-serif" font-size="12" fill="#a8a29e">Clear: cat bed</text>
      <svg x="12" y="28" width="616" height="38" overflow="visible"><svg xmlns="http://www.w3.org/2000/svg" width="100%" height="38" overflow="visible" style="background:transparent">
  
  
  <g transform="translate(4 26)"><g><g><g shape-rendering="crispEdges"><rect x="3" y="0" width="42" height="3" fill="#6f63c9"/><rect x="0" y="3" width="3" height="3" fill="#6f63c9"/><rect x="3" y="3" width="42" height="3" fill="#b3a9f0"/><rect x="45" y="3" width="3" height="3" fill="#6f63c9"/><rect x="0" y="6" width="48" height="3" fill="#6f63c9"/><rect x="3" y="9" width="42" height="3" fill="#6f63c9"/></g></g></g></g>
  
  <svg x="0.000%" y="8" width="36" height="30" overflow="visible">
    <g transform="translate(10 -9)"><g><g><animateTransform attributeName="transform" type="translate" values="-10 9;-5 -3.5;0 0" dur="0.35s" begin="-5000ms" fill="freeze"/>
    <g shape-rendering="crispEdges">
      
      <g><rect x="3" y="12" width="3" height="3" fill="#d97757"/><rect x="21" y="12" width="3" height="3" fill="#d97757"/><rect x="3" y="15" width="6" height="3" fill="#d97757"/><rect x="18" y="15" width="6" height="3" fill="#d97757"/><rect x="0" y="18" width="30" height="3" fill="#d97757"/><rect x="0" y="21" width="3" height="3" fill="#d97757"/><rect x="3" y="21" width="6" height="3" fill="#9e4f36"/><rect x="9" y="21" width="9" height="3" fill="#d97757"/><rect x="18" y="21" width="6" height="3" fill="#9e4f36"/><rect x="24" y="21" width="12" height="3" fill="#d97757"/><rect x="0" y="24" width="3" height="3" fill="#f4a4a0"/><rect x="3" y="24" width="9" height="3" fill="#d97757"/><rect x="12" y="24" width="3" height="3" fill="#e8737a"/><rect x="15" y="24" width="6" height="3" fill="#d97757"/><rect x="21" y="24" width="3" height="3" fill="#f4a4a0"/><rect x="24" y="24" width="9" height="3" fill="#d97757"/><rect x="33" y="24" width="3" height="3" fill="#9e4f36"/><rect x="3" y="27" width="30" height="3" fill="#d97757"/></g>
    </g>
    
    
    </g></g></g>
    <g transform="translate(24 0)"><text x="24" y="8" font-size="9" fill="#8b949e" opacity="0">z
      <animate attributeName="y" values="8;-2" dur="1.6s" begin="0s" repeatCount="indefinite"/>
      <animate attributeName="opacity" values="0;1;0" dur="1.6s" begin="0s" repeatCount="indefinite"/>
    </text><text x="30" y="8" font-size="11" fill="#8b949e" opacity="0">Z
      <animate attributeName="y" values="8;-2" dur="1.6s" begin="0.8s" repeatCount="indefinite"/>
      <animate attributeName="opacity" values="0;1;0" dur="1.6s" begin="0.8s" repeatCount="indefinite"/>
    </text></g>
  </svg>
</svg></svg>
<text x="12" y="90" font-family="-apple-system,Segoe UI,sans-serif" font-size="12" fill="#a8a29e">Grass: tree stump</text>
      <svg x="12" y="96" width="616" height="38" overflow="visible"><svg xmlns="http://www.w3.org/2000/svg" width="100%" height="38" overflow="visible" style="background:transparent">
  
  <rect x="0" y="33" width="100%" height="5" rx="2" fill="#2f6b3a"/><svg x="6%" y="27" overflow="visible"><path d="M0 6 l2 -5 l1 5 l2 -6 l1 6" fill="none" stroke="#4f9a5a" stroke-width="1.2"/></svg><svg x="19%" y="27" overflow="visible"><path d="M0 6 l2 -5 l1 5 l2 -6 l1 6" fill="none" stroke="#4f9a5a" stroke-width="1.2"/></svg><svg x="33%" y="27" overflow="visible"><path d="M0 6 l2 -5 l1 5 l2 -6 l1 6" fill="none" stroke="#4f9a5a" stroke-width="1.2"/></svg><svg x="47%" y="27" overflow="visible"><path d="M0 6 l2 -5 l1 5 l2 -6 l1 6" fill="none" stroke="#4f9a5a" stroke-width="1.2"/></svg><svg x="61%" y="27" overflow="visible"><path d="M0 6 l2 -5 l1 5 l2 -6 l1 6" fill="none" stroke="#4f9a5a" stroke-width="1.2"/></svg><svg x="74%" y="27" overflow="visible"><path d="M0 6 l2 -5 l1 5 l2 -6 l1 6" fill="none" stroke="#4f9a5a" stroke-width="1.2"/></svg><svg x="88%" y="27" overflow="visible"><path d="M0 6 l2 -5 l1 5 l2 -6 l1 6" fill="none" stroke="#4f9a5a" stroke-width="1.2"/></svg>
  <g transform="translate(4 23)"><g><g><g shape-rendering="crispEdges"><rect x="3" y="0" width="30" height="3" fill="#c79a6b"/><rect x="0" y="3" width="36" height="3" fill="#7a5234"/><rect x="3" y="6" width="6" height="3" fill="#7a5234"/><rect x="9" y="6" width="3" height="3" fill="#5b3a22"/><rect x="12" y="6" width="12" height="3" fill="#7a5234"/><rect x="24" y="6" width="3" height="3" fill="#5b3a22"/><rect x="27" y="6" width="6" height="3" fill="#7a5234"/><rect x="3" y="9" width="12" height="3" fill="#7a5234"/><rect x="15" y="9" width="3" height="3" fill="#5b3a22"/><rect x="18" y="9" width="15" height="3" fill="#7a5234"/><rect x="0" y="12" width="36" height="3" fill="#7a5234"/></g></g></g></g>
  
  <svg x="0.000%" y="8" width="36" height="30" overflow="visible">
    <g transform="translate(4 -12)"><g><g><animateTransform attributeName="transform" type="translate" values="-4 12;-2 -2;0 0" dur="0.35s" begin="-5000ms" fill="freeze"/>
    <g shape-rendering="crispEdges">
      
      <g><rect x="3" y="12" width="3" height="3" fill="#1f1f24"/><rect x="21" y="12" width="3" height="3" fill="#1f1f24"/><rect x="3" y="15" width="6" height="3" fill="#1f1f24"/><rect x="18" y="15" width="6" height="3" fill="#1f1f24"/><rect x="0" y="18" width="30" height="3" fill="#1f1f24"/><rect x="0" y="21" width="3" height="3" fill="#1f1f24"/><rect x="3" y="21" width="6" height="3" fill="#050506"/><rect x="9" y="21" width="9" height="3" fill="#1f1f24"/><rect x="18" y="21" width="6" height="3" fill="#050506"/><rect x="24" y="21" width="12" height="3" fill="#1f1f24"/><rect x="0" y="24" width="3" height="3" fill="#8a4a55"/><rect x="3" y="24" width="9" height="3" fill="#1f1f24"/><rect x="12" y="24" width="3" height="3" fill="#e8737a"/><rect x="15" y="24" width="6" height="3" fill="#1f1f24"/><rect x="21" y="24" width="3" height="3" fill="#8a4a55"/><rect x="24" y="24" width="9" height="3" fill="#1f1f24"/><rect x="33" y="24" width="3" height="3" fill="#050506"/><rect x="3" y="27" width="30" height="3" fill="#1f1f24"/></g>
    </g>
    
    
    </g></g></g>
    <g transform="translate(18 0)"><text x="24" y="8" font-size="9" fill="#8b949e" opacity="0">z
      <animate attributeName="y" values="8;-2" dur="1.6s" begin="0s" repeatCount="indefinite"/>
      <animate attributeName="opacity" values="0;1;0" dur="1.6s" begin="0s" repeatCount="indefinite"/>
    </text><text x="30" y="8" font-size="11" fill="#8b949e" opacity="0">Z
      <animate attributeName="y" values="8;-2" dur="1.6s" begin="0.8s" repeatCount="indefinite"/>
      <animate attributeName="opacity" values="0;1;0" dur="1.6s" begin="0.8s" repeatCount="indefinite"/>
    </text></g>
  </svg>
</svg></svg>
<text x="12" y="158" font-family="-apple-system,Segoe UI,sans-serif" font-size="12" fill="#a8a29e">Night: cloud</text>
      <svg x="12" y="164" width="616" height="38" overflow="visible"><svg xmlns="http://www.w3.org/2000/svg" width="100%" height="38" overflow="visible" style="background:transparent">
  
  <rect x="0" y="0" width="100%" height="38" rx="6" fill="#141a2e"/><circle cx="4%" cy="6" r="0.9" fill="#e8e6ff"><animate attributeName="opacity" values="1;0.2;1" dur="2s" begin="0s" repeatCount="indefinite"/></circle><circle cx="13%" cy="18" r="0.9" fill="#e8e6ff"><animate attributeName="opacity" values="1;0.2;1" dur="3s" begin="0.37s" repeatCount="indefinite"/></circle><circle cx="22%" cy="5" r="0.9" fill="#e8e6ff"><animate attributeName="opacity" values="1;0.2;1" dur="4s" begin="0.74s" repeatCount="indefinite"/></circle><circle cx="37%" cy="11" r="0.9" fill="#e8e6ff"><animate attributeName="opacity" values="1;0.2;1" dur="2s" begin="1.1099999999999999s" repeatCount="indefinite"/></circle><circle cx="51%" cy="4" r="0.9" fill="#e8e6ff"><animate attributeName="opacity" values="1;0.2;1" dur="3s" begin="1.48s" repeatCount="indefinite"/></circle><circle cx="63%" cy="16" r="0.9" fill="#e8e6ff"><animate attributeName="opacity" values="1;0.2;1" dur="4s" begin="1.85s" repeatCount="indefinite"/></circle><circle cx="71%" cy="7" r="0.9" fill="#e8e6ff"><animate attributeName="opacity" values="1;0.2;1" dur="2s" begin="2.2199999999999998s" repeatCount="indefinite"/></circle><circle cx="83%" cy="13" r="0.9" fill="#e8e6ff"><animate attributeName="opacity" values="1;0.2;1" dur="3s" begin="2.59s" repeatCount="indefinite"/></circle><circle cx="95%" cy="5" r="0.9" fill="#e8e6ff"><animate attributeName="opacity" values="1;0.2;1" dur="4s" begin="2.96s" repeatCount="indefinite"/></circle><circle cx="92%" cy="9" r="5" fill="#f2e9c9"/><circle cx="91%" cy="8" r="5" fill="#141a2e" transform="translate(-3 -1)"/>
  <g transform="translate(4 21)"><g><g><animateTransform attributeName="transform" type="translate" values="0 0;0 -2;0 0" dur="3s" repeatCount="indefinite"/><g shape-rendering="crispEdges"><rect x="9" y="0" width="9" height="3" fill="#e6e9f7"/><rect x="30" y="0" width="6" height="3" fill="#e6e9f7"/><rect x="3" y="3" width="39" height="3" fill="#e6e9f7"/><rect x="0" y="6" width="48" height="3" fill="#e6e9f7"/><rect x="3" y="9" width="42" height="3" fill="#aab1cf"/></g></g></g></g>
  
  <svg x="0.000%" y="8" width="36" height="30" overflow="visible">
    <g transform="translate(10 -14)"><g><animateTransform attributeName="transform" type="translate" values="0 0;0 -2;0 0" dur="3s" repeatCount="indefinite"/><g><animateTransform attributeName="transform" type="translate" values="-10 14;-5 -1;0 0" dur="0.35s" begin="-5000ms" fill="freeze"/>
    <g shape-rendering="crispEdges">
      
      <g><rect x="3" y="12" width="3" height="3" fill="#f6b8c8"/><rect x="21" y="12" width="3" height="3" fill="#f6b8c8"/><rect x="3" y="15" width="6" height="3" fill="#f6b8c8"/><rect x="18" y="15" width="6" height="3" fill="#f6b8c8"/><rect x="0" y="18" width="30" height="3" fill="#f6b8c8"/><rect x="0" y="21" width="3" height="3" fill="#f6b8c8"/><rect x="3" y="21" width="6" height="3" fill="#d4869c"/><rect x="9" y="21" width="9" height="3" fill="#f6b8c8"/><rect x="18" y="21" width="6" height="3" fill="#d4869c"/><rect x="24" y="21" width="12" height="3" fill="#f6b8c8"/><rect x="0" y="24" width="3" height="3" fill="#f4a4a0"/><rect x="3" y="24" width="9" height="3" fill="#f6b8c8"/><rect x="12" y="24" width="3" height="3" fill="#d9566b"/><rect x="15" y="24" width="6" height="3" fill="#f6b8c8"/><rect x="21" y="24" width="3" height="3" fill="#f4a4a0"/><rect x="24" y="24" width="9" height="3" fill="#f6b8c8"/><rect x="33" y="24" width="3" height="3" fill="#d4869c"/><rect x="3" y="27" width="30" height="3" fill="#f6b8c8"/></g>
    </g>
    
    
    </g></g></g>
    <g transform="translate(24 0)"><text x="24" y="8" font-size="9" fill="#8b949e" opacity="0">z
      <animate attributeName="y" values="8;-2" dur="1.6s" begin="0s" repeatCount="indefinite"/>
      <animate attributeName="opacity" values="0;1;0" dur="1.6s" begin="0s" repeatCount="indefinite"/>
    </text><text x="30" y="8" font-size="11" fill="#8b949e" opacity="0">Z
      <animate attributeName="y" values="8;-2" dur="1.6s" begin="0.8s" repeatCount="indefinite"/>
      <animate attributeName="opacity" values="0;1;0" dur="1.6s" begin="0.8s" repeatCount="indefinite"/>
    </text></g>
  </svg>
</svg></svg>
<text x="12" y="226" font-family="-apple-system,Segoe UI,sans-serif" font-size="12" fill="#a8a29e">Cozy: cat tree</text>
      <svg x="12" y="232" width="616" height="38" overflow="visible"><svg xmlns="http://www.w3.org/2000/svg" width="100%" height="38" overflow="visible" style="background:transparent">
  
  <rect x="0" y="0" width="100%" height="38" rx="6" fill="#3a2c24"/><rect x="0" y="34" width="100%" height="4" fill="#5a4334"/><rect x="70%" y="31" width="18%" height="3" rx="1.5" fill="#a2554a" opacity="0.8"/>
  <g transform="translate(4 20)"><g><g><g shape-rendering="crispEdges"><rect x="0" y="0" width="42" height="3" fill="#c9876b"/><rect x="0" y="3" width="42" height="3" fill="#9a5f49"/><rect x="15" y="6" width="12" height="3" fill="#d9c08f"/><rect x="15" y="9" width="3" height="3" fill="#d9c08f"/><rect x="18" y="9" width="3" height="3" fill="#b39a6a"/><rect x="21" y="9" width="6" height="3" fill="#d9c08f"/><rect x="15" y="12" width="6" height="3" fill="#d9c08f"/><rect x="21" y="12" width="3" height="3" fill="#b39a6a"/><rect x="24" y="12" width="3" height="3" fill="#d9c08f"/><rect x="6" y="15" width="30" height="3" fill="#9a5f49"/></g></g></g></g>
  
  <svg x="0.000%" y="8" width="36" height="30" overflow="visible">
    <g transform="translate(7 -15)"><g><g><animateTransform attributeName="transform" type="translate" values="-7 15;-3.5 -0.5;0 0" dur="0.35s" begin="-5000ms" fill="freeze"/>
    <g shape-rendering="crispEdges">
      
      <g><rect x="3" y="12" width="3" height="3" fill="#d97757"/><rect x="21" y="12" width="3" height="3" fill="#d97757"/><rect x="3" y="15" width="6" height="3" fill="#d97757"/><rect x="18" y="15" width="6" height="3" fill="#d97757"/><rect x="0" y="18" width="30" height="3" fill="#d97757"/><rect x="0" y="21" width="3" height="3" fill="#d97757"/><rect x="3" y="21" width="6" height="3" fill="#9e4f36"/><rect x="9" y="21" width="9" height="3" fill="#d97757"/><rect x="18" y="21" width="6" height="3" fill="#9e4f36"/><rect x="24" y="21" width="12" height="3" fill="#d97757"/><rect x="0" y="24" width="3" height="3" fill="#f4a4a0"/><rect x="3" y="24" width="9" height="3" fill="#d97757"/><rect x="12" y="24" width="3" height="3" fill="#e8737a"/><rect x="15" y="24" width="6" height="3" fill="#d97757"/><rect x="21" y="24" width="3" height="3" fill="#f4a4a0"/><rect x="24" y="24" width="9" height="3" fill="#d97757"/><rect x="33" y="24" width="3" height="3" fill="#9e4f36"/><rect x="3" y="27" width="30" height="3" fill="#d97757"/></g>
    </g>
    
    
    </g></g></g>
    <g transform="translate(21 0)"><text x="24" y="8" font-size="9" fill="#8b949e" opacity="0">z
      <animate attributeName="y" values="8;-2" dur="1.6s" begin="0s" repeatCount="indefinite"/>
      <animate attributeName="opacity" values="0;1;0" dur="1.6s" begin="0s" repeatCount="indefinite"/>
    </text><text x="30" y="8" font-size="11" fill="#8b949e" opacity="0">Z
      <animate attributeName="y" values="8;-2" dur="1.6s" begin="0.8s" repeatCount="indefinite"/>
      <animate attributeName="opacity" values="0;1;0" dur="1.6s" begin="0.8s" repeatCount="indefinite"/>
    </text></g>
  </svg>
</svg></svg></svg>