<svg xmlns="http://www.w3.org/2000/svg" width="640" height="366" viewBox="0 0 640 366"><rect width="100%" height="100%" rx="12" fill="#1f1e1d"/><text x="12" y="22" font-family="-apple-system,Segoe UI,sans-serif" font-size="12" fill="#a8a29e">Chasing yarn</text>
      <svg x="12" y="28" width="616" height="38" overflow="visible"><svg xmlns="http://www.w3.org/2000/svg" width="100%" height="38" overflow="visible" style="background:transparent">
  
  
  
  
  <svg x="38.250%" y="8" width="36" height="30" overflow="visible">
    <g><g><g>
    <g shape-rendering="crispEdges">
      <g transform="translate(39 15)"><g><rect x="3" y="0" width="9" height="3" fill="#e0566b"/><rect x="0" y="3" width="3" height="3" fill="#e0566b"/><rect x="3" y="3" width="3" height="3" fill="#f5a3ae"/><rect x="6" y="3" width="9" height="3" fill="#e0566b"/><rect x="0" y="6" width="6" height="3" fill="#e0566b"/><rect x="6" y="6" width="3" height="3" fill="#f5a3ae"/><rect x="9" y="6" width="6" height="3" fill="#e0566b"/><rect x="0" y="9" width="9" height="3" fill="#e0566b"/><rect x="9" y="9" width="3" height="3" fill="#f5a3ae"/><rect x="12" y="9" width="3" height="3" fill="#e0566b"/><rect x="3" y="12" width="9" height="3" fill="#e0566b"/></g></g>
      <g><g><rect x="12" y="0" width="3" height="3" fill="#d97757"/><rect x="30" y="0" width="3" height="3" fill="#d97757"/><rect x="12" y="3" width="6" height="3" fill="#d97757"/><rect x="27" y="3" width="6" height="3" fill="#d97757"/><rect x="9" y="6" width="27" height="3" fill="#d97757"/><rect x="9" y="9" width="3" height="3" fill="#d97757"/><rect x="12" y="9" width="3" height="3" fill="#1f1e1d"/><rect x="15" y="9" width="3" height="3" fill="#ffffff"/><rect x="18" y="9" width="9" height="3" fill="#d97757"/><rect x="27" y="9" width="3" height="3" fill="#1f1e1d"/><rect x="30" y="9" width="3" height="3" fill="#ffffff"/><rect x="33" y="9" width="3" height="3" fill="#d97757"/><rect x="9" y="12" width="3" height="3" fill="#d97757"/><rect x="12" y="12" width="6" height="3" fill="#1f1e1d"/><rect x="18" y="12" width="9" height="3" fill="#d97757"/><rect x="27" y="12" width="6" height="3" fill="#1f1e1d"/><rect x="33" y="12" width="3" height="3" fill="#d97757"/><rect x="9" y="15" width="3" height="3" fill="#f4a4a0"/><rect x="12" y="15" width="9" height="3" fill="#d97757"/><rect x="21" y="15" width="3" height="3" fill="#e8737a"/><rect x="24" y="15" width="9" height="3" fill="#d97757"/><rect x="33" y="15" width="3" height="3" fill="#f4a4a0"/><rect x="12" y="18" width="21" height="3" fill="#d97757"/><rect x="6" y="21" width="3" height="3" fill="#9e4f36"/><rect x="12" y="21" width="9" height="3" fill="#d97757"/><rect x="21" y="21" width="9" height="3" fill="#fbefe4"/><rect x="30" y="21" width="3" height="3" fill="#d97757"/><rect x="6" y="24" width="3" height="3" fill="#9e4f36"/><rect x="9" y="24" width="12" height="3" fill="#d97757"/><rect x="21" y="24" width="6" height="3" fill="#fbefe4"/><rect x="27" y="24" width="6" height="3" fill="#d97757"/><rect x="12" y="27" width="6" height="3" fill="#d97757"/><rect x="24" y="27" width="6" height="3" fill="#d97757"/><animate attributeName="opacity" values="1;0" dur="1.2s" calcMode="discrete" repeatCount="indefinite"/></g><g opacity="0"><rect x="12" y="0" width="3" height="3" fill="#d97757"/><rect x="30" y="0" width="3" height="3" fill="#d97757"/><rect x="12" y="3" width="6" height="3" fill="#d97757"/><rect x="27" y="3" width="6" height="3" fill="#d97757"/><rect x="9" y="6" width="27" height="3" fill="#d97757"/><rect x="9" y="9" width="3" height="3" fill="#d97757"/><rect x="12" y="9" width="3" height="3" fill="#1f1e1d"/><rect x="15" y="9" width="3" height="3" fill="#ffffff"/><rect x="18" y="9" width="9" height="3" fill="#d97757"/><rect x="27" y="9" width="3" height="3" fill="#1f1e1d"/><rect x="30" y="9" width="3" height="3" fill="#ffffff"/><rect x="33" y="9" width="3" height="3" fill="#d97757"/><rect x="9" y="12" width="3" height="3" fill="#d97757"/><rect x="12" y="12" width="6" height="3" fill="#1f1e1d"/><rect x="18" y="12" width="9" height="3" fill="#d97757"/><rect x="27" y="12" width="6" height="3" fill="#1f1e1d"/><rect x="33" y="12" width="3" height="3" fill="#d97757"/><rect x="9" y="15" width="3" height="3" fill="#f4a4a0"/><rect x="12" y="15" width="9" height="3" fill="#d97757"/><rect x="21" y="15" width="3" height="3" fill="#e8737a"/><rect x="24" y="15" width="9" height="3" fill="#d97757"/><rect x="33" y="15" width="3" height="3" fill="#f4a4a0"/><rect x="3" y="18" width="3" height="3" fill="#9e4f36"/><rect x="12" y="18" width="21" height="3" fill="#d97757"/><rect x="6" y="21" width="3" height="3" fill="#9e4f36"/><rect x="12" y="21" width="9" height="3" fill="#d97757"/><rect x="21" y="21" width="9" height="3" fill="#fbefe4"/><rect x="30" y="21" width="3" height="3" fill="#d97757"/><rect x="6" y="24" width="3" height="3" fill="#9e4f36"/><rect x="9" y="24" width="12" height="3" fill="#d97757"/><rect x="21" y="24" width="6" height="3" fill="#fbefe4"/><rect x="27" y="24" width="6" height="3" fill="#d97757"/><rect x="12" y="27" width="6" height="3" fill="#d97757"/><rect x="24" y="27" width="6" height="3" fill="#d97757"/><animate attributeName="opacity" values="0;1" dur="1.2s" calcMode="discrete" repeatCount="indefinite"/></g><g opacity="0"><rect x="12" y="9" width="6" height="3" fill="#d97757"/><rect x="27" y="9" width="6" height="3" fill="#d97757"/><rect x="12" y="12" width="6" height="3" fill="#9e4f36"/><rect x="27" y="12" width="6" height="3" fill="#9e4f36"/><animate attributeName="opacity" values="0;1;0" keyTimes="0;0.95;0.98" dur="4s" calcMode="discrete" repeatCount="indefinite"/></g></g>
    </g>
    
    <g opacity="0">
    <animate attributeName="opacity" from="0" to="1" dur="0.15s" fill="freeze"/>
    <animateTransform attributeName="transform" type="translate" from="0 3" to="0 0" dur="0.18s" fill="freeze"/>
    <rect x="-59" y="6" width="54" height="18" rx="9" fill="#8b949e" fill-opacity="0.16" stroke="#8b949e" stroke-opacity="0.7"/>
    <path d="M-5 13 l5 2 l-5 2 z" fill="#8b949e" fill-opacity="0.16"/>
    <text x="-52" y="18.5" font-family="ui-monospace, Menlo, monospace" font-size="11" fill="#8b949e">yarn!!</text>
  </g>
    </g></g></g>
    
  </svg>
</svg></svg>
<text x="12" y="90" font-family="-apple-system,Segoe UI,sans-serif" font-size="12" fill="#a8a29e">Hunting a mouse</text>
      <svg x="12" y="96" width="616" height="38" overflow="visible"><svg xmlns="http://www.w3.org/2000/svg" width="100%" height="38" overflow="visible" style="background:transparent">
  
  
  
  
  <svg x="38.250%" y="8" width="36" height="30" overflow="visible">
    <g><g><g>
    <g shape-rendering="crispEdges">
      <g transform="translate(33 18)"><g><rect x="12" y="0" width="6" height="3" fill="#a7adb4"/><rect x="3" y="3" width="12" height="3" fill="#a7adb4"/><rect x="15" y="3" width="3" height="3" fill="#1f1e1d"/><rect x="18" y="3" width="3" height="3" fill="#a7adb4"/><rect x="0" y="6" width="3" height="3" fill="#f4a4a0"/><rect x="3" y="6" width="15" height="3" fill="#a7adb4"/><rect x="6" y="9" width="3" height="3" fill="#a7adb4"/><rect x="12" y="9" width="3" height="3" fill="#a7adb4"/><animate attributeName="opacity" values="1;0" dur="0.16s" calcMode="discrete" repeatCount="indefinite"/></g><g opacity="0"><rect x="12" y="0" width="6" height="3" fill="#a7adb4"/><rect x="3" y="3" width="12" height="3" fill="#a7adb4"/><rect x="15" y="3" width="3" height="3" fill="#1f1e1d"/><rect x="18" y="3" width="3" height="3" fill="#a7adb4"/><rect x="0" y="6" width="3" height="3" fill="#f4a4a0"/><rect x="3" y="6" width="15" height="3" fill="#a7adb4"/><rect x="3" y="9" width="3" height="3" fill="#a7adb4"/><rect x="15" y="9" width="3" height="3" fill="#a7adb4"/><animate attributeName="opacity" values="0;1" dur="0.16s" calcMode="discrete" repeatCount="indefinite"/></g></g>
      <g><g><rect x="12" y="0" width="3" height="3" fill="#d97757"/><rect x="30" y="0" width="3" height="3" fill="#d97757"/><rect x="12" y="3" width="6" height="3" fill="#d97757"/><rect x="27" y="3" width="6" height="3" fill="#d97757"/><rect x="9" y="6" width="27" height="3" fill="#d97757"/><rect x="9" y="9" width="3" height="3" fill="#d97757"/><rect x="12" y="9" width="3" height="3" fill="#1f1e1d"/><rect x="15" y="9" width="3" height="3" fill="#ffffff"/><rect x="18" y="9" width="9" height="3" fill="#d97757"/><rect x="27" y="9" width="3" height="3" fill="#1f1e1d"/><rect x="30" y="9" width="3" height="3" fill="#ffffff"/><rect x="33" y="9" width="3" height="3" fill="#d97757"/><rect x="9" y="12" width="3" height="3" fill="#d97757"/><rect x="12" y="12" width="6" height="3" fill="#1f1e1d"/><rect x="18" y="12" width="9" height="3" fill="#d97757"/><rect x="27" y="12" width="6" height="3" fill="#1f1e1d"/><rect x="33" y="12" width="3" height="3" fill="#d97757"/><rect x="9" y="15" width="3" height="3" fill="#f4a4a0"/><rect x="12" y="15" width="9" height="3" fill="#d97757"/><rect x="21" y="15" width="3" height="3" fill="#e8737a"/><rect x="24" y="15" width="9" height="3" fill="#d97757"/><rect x="33" y="15" width="3" height="3" fill="#f4a4a0"/><rect x="12" y="18" width="21" height="3" fill="#d97757"/><rect x="6" y="21" width="3" height="3" fill="#9e4f36"/><rect x="12" y="21" width="9" height="3" fill="#d97757"/><rect x="21" y="21" width="9" height="3" fill="#fbefe4"/><rect x="30" y="21" width="3" height="3" fill="#d97757"/><rect x="6" y="24" width="3" height="3" fill="#9e4f36"/><rect x="9" y="24" width="12" height="3" fill="#d97757"/><rect x="21" y="24" width="6" height="3" fill="#fbefe4"/><rect x="27" y="24" width="6" height="3" fill="#d97757"/><rect x="12" y="27" width="6" height="3" fill="#d97757"/><rect x="24" y="27" width="6" height="3" fill="#d97757"/><animate attributeName="opacity" values="1;0" dur="1.2s" calcMode="discrete" repeatCount="indefinite"/></g><g opacity="0"><rect x="12" y="0" width="3" height="3" fill="#d97757"/><rect x="30" y="0" width="3" height="3" fill="#d97757"/><rect x="12" y="3" width="6" height="3" fill="#d97757"/><rect x="27" y="3" width="6" height="3" fill="#d97757"/><rect x="9" y="6" width="27" height="3" fill="#d97757"/><rect x="9" y="9" width="3" height="3" fill="#d97757"/><rect x="12" y="9" width="3" height="3" fill="#1f1e1d"/><rect x="15" y="9" width="3" height="3" fill="#ffffff"/><rect x="18" y="9" width="9" height="3" fill="#d97757"/><rect x="27" y="9" width="3" height="3" fill="#1f1e1d"/><rect x="30" y="9" width="3" height="3" fill="#ffffff"/><rect x="33" y="9" width="3" height="3" fill="#d97757"/><rect x="9" y="12" width="3" height="3" fill="#d97757"/><rect x="12" y="12" width="6" height="3" fill="#1f1e1d"/><rect x="18" y="12" width="9" height="3" fill="#d97757"/><rect x="27" y="12" width="6" height="3" fill="#1f1e1d"/><rect x="33" y="12" width="3" height="3" fill="#d97757"/><rect x="9" y="15" width="3" height="3" fill="#f4a4a0"/><rect x="12" y="15" width="9" height="3" fill="#d97757"/><rect x="21" y="15" width="3" height="3" fill="#e8737a"/><rect x="24" y="15" width="9" height="3" fill="#d97757"/><rect x="33" y="15" width="3" height="3" fill="#f4a4a0"/><rect x="3" y="18" width="3" height="3" fill="#9e4f36"/><rect x="12" y="18" width="21" height="3" fill="#d97757"/><rect x="6" y="21" width="3" height="3" fill="#9e4f36"/><rect x="12" y="21" width="9" height="3" fill="#d97757"/><rect x="21" y="21" width="9" height="3" fill="#fbefe4"/><rect x="30" y="21" width="3" height="3" fill="#d97757"/><rect x="6" y="24" width="3" height="3" fill="#9e4f36"/><rect x="9" y="24" width="12" height="3" fill="#d97757"/><rect x="21" y="24" width="6" height="3" fill="#fbefe4"/><rect x="27" y="24" width="6" height="3" fill="#d97757"/><rect x="12" y="27" width="6" height="3" fill="#d97757"/><rect x="24" y="27" width="6" height="3" fill="#d97757"/><animate attributeName="opacity" values="0;1" dur="1.2s" calcMode="discrete" repeatCount="indefinite"/></g><g opacity="0"><rect x="12" y="9" width="6" height="3" fill="#d97757"/><rect x="27" y="9" width="6" height="3" fill="#d97757"/><rect x="12" y="12" width="6" height="3" fill="#9e4f36"/><rect x="27" y="12" width="6" height="3" fill="#9e4f36"/><animate attributeName="opacity" values="0;1;0" keyTimes="0;0.95;0.98" dur="4s" calcMode="discrete" repeatCount="indefinite"/></g></g>
    </g>
    
    <g opacity="0">
    <animate attributeName="opacity" from="0" to="1" dur="0.15s" fill="freeze"/>
    <animateTransform attributeName="transform" type="translate" from="0 3" to="0 0" dur="0.18s" fill="freeze"/>
    <rect x="-72" y="6" width="67" height="18" rx="9" fill="#8b949e" fill-opacity="0.16" stroke="#8b949e" stroke-opacity="0.7"/>
    <path d="M-5 13 l5 2 l-5 2 z" fill="#8b949e" fill-opacity="0.16"/>
    <text x="-65" y="18.5" font-family="ui-monospace, Menlo, monospace" font-size="11" fill="#8b949e">a mouse!</text>
  </g>
    </g></g></g>
    
  </svg>
</svg></svg>
<text x="12" y="158" font-family="-apple-system,Segoe UI,sans-serif" font-size="12" fill="#a8a29e">Following a butterfly</text>
      <svg x="12" y="164" width="616" height="38" overflow="visible"><svg xmlns="http://www.w3.org/2000/svg" width="100%" height="38" overflow="visible" style="background:transparent">
  
  
  
  
  <svg x="38.250%" y="8" width="36" height="30" overflow="visible">
    <g><g><g>
    <g shape-rendering="crispEdges">
      <g transform="translate(39 4)"><g>
      <animateTransform attributeName="transform" type="translate" values="0 0;4 -3;1 2;-3 -1;0 0" dur="1.8s" repeatCount="indefinite"/>
      <g><rect x="0" y="0" width="6" height="3" fill="#8f8cf2"/><rect x="9" y="0" width="6" height="3" fill="#8f8cf2"/><rect x="0" y="3" width="6" height="3" fill="#8f8cf2"/><rect x="6" y="3" width="3" height="3" fill="#2b2840"/><rect x="9" y="3" width="6" height="3" fill="#8f8cf2"/><rect x="3" y="6" width="3" height="3" fill="#8f8cf2"/><rect x="6" y="6" width="3" height="3" fill="#2b2840"/><rect x="9" y="6" width="3" height="3" fill="#8f8cf2"/><animate attributeName="opacity" values="1;0" dur="0.25s" calcMode="discrete" repeatCount="indefinite"/></g><g opacity="0"><rect x="3" y="0" width="3" height="3" fill="#8f8cf2"/><rect x="6" y="0" width="3" height="3" fill="#2b2840"/><rect x="9" y="0" width="3" height="3" fill="#8f8cf2"/><rect x="3" y="3" width="3" height="3" fill="#8f8cf2"/><rect x="6" y="3" width="3" height="3" fill="#2b2840"/><rect x="9" y="3" width="3" height="3" fill="#8f8cf2"/><rect x="6" y="6" width="3" height="3" fill="#2b2840"/><animate attributeName="opacity" values="0;1" dur="0.25s" calcMode="discrete" repeatCount="indefinite"/></g>
    </g></g>
      <g><g><rect x="12" y="0" width="3" height="3" fill="#d97757"/><rect x="30" y="0" width="3" height="3" fill="#d97757"/><rect x="12" y="3" width="6" height="3" fill="#d97757"/><rect x="27" y="3" width="6" height="3" fill="#d97757"/><rect x="9" y="6" width="27" height="3" fill="#d97757"/><rect x="9" y="9" width="3" height="3" fill="#d97757"/><rect x="12" y="9" width="3" height="3" fill="#1f1e1d"/><rect x="15" y="9" width="3" height="3" fill="#ffffff"/><rect x="18" y="9" width="9" height="3" fill="#d97757"/><rect x="27" y="9" width="3" height="3" fill="#1f1e1d"/><rect x="30" y="9" width="3" height="3" fill="#ffffff"/><rect x="33" y="9" width="3" height="3" fill="#d97757"/><rect x="9" y="12" width="3" height="3" fill="#d97757"/><rect x="12" y="12" width="6" height="3" fill="#1f1e1d"/><rect x="18" y="12" width="9" height="3" fill="#d97757"/><rect x="27" y="12" width="6" height="3" fill="#1f1e1d"/><rect x="33" y="12" width="3" height="3" fill="#d97757"/><rect x="9" y="15" width="3" height="3" fill="#f4a4a0"/><rect x="12" y="15" width="9" height="3" fill="#d97757"/><rect x="21" y="15" width="3" height="3" fill="#e8737a"/><rect x="24" y="15" width="9" height="3" fill="#d97757"/><rect x="33" y="15" width="3" height="3" fill="#f4a4a0"/><rect x="12" y="18" width="21" height="3" fill="#d97757"/><rect x="6" y="21" width="3" height="3" fill="#9e4f36"/><rect x="12" y="21" width="9" height="3" fill="#d97757"/><rect x="21" y="21" width="9" height="3" fill="#fbefe4"/><rect x="30" y="21" width="3" height="3" fill="#d97757"/><rect x="6" y="24" width="3" height="3" fill="#9e4f36"/><rect x="9" y="24" width="12" height="3" fill="#d97757"/><rect x="21" y="24" width="6" height="3" fill="#fbefe4"/><rect x="27" y="24" width="6" height="3" fill="#d97757"/><rect x="12" y="27" width="6" height="3" fill="#d97757"/><rect x="24" y="27" width="6" height="3" fill="#d97757"/><animate attributeName="opacity" values="1;0" dur="1.2s" calcMode="discrete" repeatCount="indefinite"/></g><g opacity="0"><rect x="12" y="0" width="3" height="3" fill="#d97757"/><rect x="30" y="0" width="3" height="3" fill="#d97757"/><rect x="12" y="3" width="6" height="3" fill="#d97757"/><rect x="27" y="3" width="6" height="3" fill="#d97757"/><rect x="9" y="6" width="27" height="3" fill="#d97757"/><rect x="9" y="9" width="3" height="3" fill="#d97757"/><rect x="12" y="9" width="3" height="3" fill="#1f1e1d"/><rect x="15" y="9" width="3" height="3" fill="#ffffff"/><rect x="18" y="9" width="9" height="3" fill="#d97757"/><rect x="27" y="9" width="3" height="3" fill="#1f1e1d"/><rect x="30" y="9" width="3" height="3" fill="#ffffff"/><rect x="33" y="9" width="3" height="3" fill="#d97757"/><rect x="9" y="12" width="3" height="3" fill="#d97757"/><rect x="12" y="12" width="6" height="3" fill="#1f1e1d"/><rect x="18" y="12" width="9" height="3" fill="#d97757"/><rect x="27" y="12" width="6" height="3" fill="#1f1e1d"/><rect x="33" y="12" width="3" height="3" fill="#d97757"/><rect x="9" y="15" width="3" height="3" fill="#f4a4a0"/><rect x="12" y="15" width="9" height="3" fill="#d97757"/><rect x="21" y="15" width="3" height="3" fill="#e8737a"/><rect x="24" y="15" width="9" height="3" fill="#d97757"/><rect x="33" y="15" width="3" height="3" fill="#f4a4a0"/><rect x="3" y="18" width="3" height="3" fill="#9e4f36"/><rect x="12" y="18" width="21" height="3" fill="#d97757"/><rect x="6" y="21" width="3" height="3" fill="#9e4f36"/><rect x="12" y="21" width="9" height="3" fill="#d97757"/><rect x="21" y="21" width="9" height="3" fill="#fbefe4"/><rect x="30" y="21" width="3" height="3" fill="#d97757"/><rect x="6" y="24" width="3" height="3" fill="#9e4f36"/><rect x="9" y="24" width="12" height="3" fill="#d97757"/><rect x="21" y="24" width="6" height="3" fill="#fbefe4"/><rect x="27" y="24" width="6" height="3" fill="#d97757"/><rect x="12" y="27" width="6" height="3" fill="#d97757"/><rect x="24" y="27" width="6" height="3" fill="#d97757"/><animate attributeName="opacity" values="0;1" dur="1.2s" calcMode="discrete" repeatCount="indefinite"/></g><g opacity="0"><rect x="12" y="9" width="6" height="3" fill="#d97757"/><rect x="27" y="9" width="6" height="3" fill="#d97757"/><rect x="12" y="12" width="6" height="3" fill="#9e4f36"/><rect x="27" y="12" width="6" height="3" fill="#9e4f36"/><animate attributeName="opacity" values="0;1;0" keyTimes="0;0.95;0.98" dur="4s" calcMode="discrete" repeatCount="indefinite"/></g></g>
    </g>
    
    <g opacity="0">
    <animate attributeName="opacity" from="0" to="1" dur="0.15s" fill="freeze"/>
    <animateTransform attributeName="transform" type="translate" from="0 3" to="0 0" dur="0.18s" fill="freeze"/>
    <rect x="-78" y="6" width="73" height="18" rx="9" fill="#8b949e" fill-opacity="0.16" stroke="#8b949e" stroke-opacity="0.7"/>
    <path d="M-5 13 l5 2 l-5 2 z" fill="#8b949e" fill-opacity="0.16"/>
    <text x="-71" y="18.5" font-family="ui-monospace, Menlo, monospace" font-size="11" fill="#8b949e">pretty<tspan opacity="0">.<animate attributeName="opacity" values="0;1;1;0" keyTimes="0;0.2;0.8;1" dur="1.2s" begin="0s" repeatCount="indefinite"/></tspan><tspan opacity="0">.<animate attributeName="opacity" values="0;1;1;0" keyTimes="0;0.2;0.8;1" dur="1.2s" begin="0.2s" repeatCount="indefinite"/></tspan><tspan opacity="0">.<animate attributeName="opacity" values="0;1;1;0" keyTimes="0;0.2;0.8;1" dur="1.2s" begin="0.4s" repeatCount="indefinite"/></tspan></text>
  </g>
    </g></g></g>
    
  </svg>
</svg></svg>
<text x="12" y="226" font-family="-apple-system,Segoe UI,sans-serif" font-size="12" fill="#a8a29e">Working (shows the tool)</text>
      <svg x="12" y="232" width="616" height="38" overflow="visible"><svg xmlns="http://www.w3.org/2000/svg" width="100%" height="38" overflow="visible" style="background:transparent">
  
  
  
  
  <svg x="38.250%" y="8" width="36" height="30" overflow="visible">
    <g><g><g>
    <g shape-rendering="crispEdges">
      
      <g><g><rect x="12" y="0" width="3" height="3" fill="#d97757"/><rect x="30" y="0" width="3" height="3" fill="#d97757"/><rect x="12" y="3" width="6" height="3" fill="#d97757"/><rect x="27" y="3" width="6" height="3" fill="#d97757"/><rect x="9" y="6" width="27" height="3" fill="#d97757"/><rect x="9" y="9" width="3" height="3" fill="#d97757"/><rect x="12" y="9" width="3" height="3" fill="#1f1e1d"/><rect x="15" y="9" width="3" height="3" fill="#ffffff"/><rect x="18" y="9" width="9" height="3" fill="#d97757"/><rect x="27" y="9" width="3" height="3" fill="#1f1e1d"/><rect x="30" y="9" width="3" height="3" fill="#ffffff"/><rect x="33" y="9" width="3" height="3" fill="#d97757"/><rect x="9" y="12" width="3" height="3" fill="#d97757"/><rect x="12" y="12" width="6" height="3" fill="#1f1e1d"/><rect x="18" y="12" width="9" height="3" fill="#d97757"/><rect x="27" y="12" width="6" height="3" fill="#1f1e1d"/><rect x="33" y="12" width="3" height="3" fill="#d97757"/><rect x="9" y="15" width="3" height="3" fill="#f4a4a0"/><rect x="12" y="15" width="9" height="3" fill="#d97757"/><rect x="21" y="15" width="3" height="3" fill="#e8737a"/><rect x="24" y="15" width="9" height="3" fill="#d97757"/><rect x="33" y="15" width="3" height="3" fill="#f4a4a0"/><rect x="12" y="18" width="21" height="3" fill="#d97757"/><rect x="6" y="21" width="3" height="3" fill="#9e4f36"/><rect x="12" y="21" width="9" height="3" fill="#d97757"/><rect x="21" y="21" width="9" height="3" fill="#fbefe4"/><rect x="30" y="21" width="3" height="3" fill="#d97757"/><rect x="6" y="24" width="3" height="3" fill="#9e4f36"/><rect x="9" y="24" width="12" height="3" fill="#d97757"/><rect x="21" y="24" width="6" height="3" fill="#fbefe4"/><rect x="27" y="24" width="6" height="3" fill="#d97757"/><rect x="12" y="27" width="6" height="3" fill="#d97757"/><rect x="24" y="27" width="6" height="3" fill="#d97757"/><animate attributeName="opacity" values="1;0" dur="1.2s" calcMode="discrete" repeatCount="indefinite"/></g><g opacity="0"><rect x="12" y="0" width="3" height="3" fill="#d97757"/><rect x="30" y="0" width="3" height="3" fill="#d97757"/><rect x="12" y="3" width="6" height="3" fill="#d97757"/><rect x="27" y="3" width="6" height="3" fill="#d97757"/><rect x="9" y="6" width="27" height="3" fill="#d97757"/><rect x="9" y="9" width="3" height="3" fill="#d97757"/><rect x="12" y="9" width="3" height="3" fill="#1f1e1d"/><rect x="15" y="9" width="3" height="3" fill="#ffffff"/><rect x="18" y="9" width="9" height="3" fill="#d97757"/><rect x="27" y="9" width="3" height="3" fill="#1f1e1d"/><rect x="30" y="9" width="3" height="3" fill="#ffffff"/><rect x="33" y="9" width="3" height="3" fill="#d97757"/><rect x="9" y="12" width="3" height="3" fill="#d97757"/><rect x="12" y="12" width="6" height="3" fill="#1f1e1d"/><rect x="18" y="12" width="9" height="3" fill="#d97757"/><rect x="27" y="12" width="6" height="3" fill="#1f1e1d"/><rect x="33" y="12" width="3" height="3" fill="#d97757"/><rect x="9" y="15" width="3" height="3" fill="#f4a4a0"/><rect x="12" y="15" width="9" height="3" fill="#d97757"/><rect x="21" y="15" width="3" height="3" fill="#e8737a"/><rect x="24" y="15" width="9" height="3" fill="#d97757"/><rect x="33" y="15" width="3" height="3" fill="#f4a4a0"/><rect x="3" y="18" width="3" height="3" fill="#9e4f36"/><rect x="12" y="18" width="21" height="3" fill="#d97757"/><rect x="6" y="21" width="3" height="3" fill="#9e4f36"/><rect x="12" y="21" width="9" height="3" fill="#d97757"/><rect x="21" y="21" width="9" height="3" fill="#fbefe4"/><rect x="30" y="21" width="3" height="3" fill="#d97757"/><rect x="6" y="24" width="3" height="3" fill="#9e4f36"/><rect x="9" y="24" width="12" height="3" fill="#d97757"/><rect x="21" y="24" width="6" height="3" fill="#fbefe4"/><rect x="27" y="24" width="6" height="3" fill="#d97757"/><rect x="12" y="27" width="6" height="3" fill="#d97757"/><rect x="24" y="27" width="6" height="3" fill="#d97757"/><animate attributeName="opacity" values="0;1" dur="1.2s" calcMode="discrete" repeatCount="indefinite"/></g><g opacity="0"><rect x="12" y="9" width="6" height="3" fill="#d97757"/><rect x="27" y="9" width="6" height="3" fill="#d97757"/><rect x="12" y="12" width="6" height="3" fill="#9e4f36"/><rect x="27" y="12" width="6" height="3" fill="#9e4f36"/><animate attributeName="opacity" values="0;1;0" keyTimes="0;0.95;0.98" dur="4s" calcMode="discrete" repeatCount="indefinite"/></g></g>
    </g>
    
    <g opacity="0">
    <animate attributeName="opacity" from="0" to="1" dur="0.15s" fill="freeze"/>
    <animateTransform attributeName="transform" type="translate" from="0 3" to="0 0" dur="0.18s" fill="freeze"/>
    <rect x="41" y="6" width="60" height="18" rx="9" fill="#39c5cf" fill-opacity="0.16" stroke="#39c5cf" stroke-opacity="0.7"/>
    <path d="M41 13 l-5 2 l5 2 z" fill="#39c5cf" fill-opacity="0.16"/>
    <text x="48" y="18.5" font-family="ui-monospace, Menlo, monospace" font-size="11" fill="#39c5cf">Bash<tspan opacity="0">.<animate attributeName="opacity" values="0;1;1;0" keyTimes="0;0.2;0.8;1" dur="1.2s" begin="0s" repeatCount="indefinite"/></tspan><tspan opacity="0">.<animate attributeName="opacity" values="0;1;1;0" keyTimes="0;0.2;0.8;1" dur="1.2s" begin="0.2s" repeatCount="indefinite"/></tspan><tspan opacity="0">.<animate attributeName="opacity" values="0;1;1;0" keyTimes="0;0.2;0.8;1" dur="1.2s" begin="0.4s" repeatCount="indefinite"/></tspan></text>
  </g>
    </g></g></g>
    
  </svg>
</svg></svg>
<text x="12" y="294" font-family="-apple-system,Segoe UI,sans-serif" font-size="12" fill="#a8a29e">Done</text>
      <svg x="12" y="300" width="616" height="38" overflow="visible"><svg xmlns="http://www.w3.org/2000/svg" width="100%" height="38" overflow="visible" style="background:transparent">
  
  
  
  
  <svg x="38.250%" y="8" width="36" height="30" overflow="visible">
    <g><g><g>
    <g shape-rendering="crispEdges">
      
      <g><animateTransform attributeName="transform" type="translate" values="0 0;0 -4;0 0" dur="0.35s" repeatCount="3"/><g><rect x="12" y="0" width="3" height="3" fill="#d97757"/><rect x="30" y="0" width="3" height="3" fill="#d97757"/><rect x="12" y="3" width="6" height="3" fill="#d97757"/><rect x="27" y="3" width="6" height="3" fill="#d97757"/><rect x="9" y="6" width="27" height="3" fill="#d97757"/><rect x="9" y="9" width="27" height="3" fill="#d97757"/><rect x="9" y="12" width="3" height="3" fill="#d97757"/><rect x="12" y="12" width="6" height="3" fill="#9e4f36"/><rect x="18" y="12" width="9" height="3" fill="#d97757"/><rect x="27" y="12" width="6" height="3" fill="#9e4f36"/><rect x="33" y="12" width="3" height="3" fill="#d97757"/><rect x="9" y="15" width="3" height="3" fill="#f4a4a0"/><rect x="12" y="15" width="9" height="3" fill="#d97757"/><rect x="21" y="15" width="3" height="3" fill="#e8737a"/><rect x="24" y="15" width="9" height="3" fill="#d97757"/><rect x="33" y="15" width="3" height="3" fill="#f4a4a0"/><rect x="12" y="18" width="21" height="3" fill="#d97757"/><rect x="6" y="21" width="3" height="3" fill="#9e4f36"/><rect x="12" y="21" width="9" height="3" fill="#d97757"/><rect x="21" y="21" width="9" height="3" fill="#fbefe4"/><rect x="30" y="21" width="3" height="3" fill="#d97757"/><rect x="6" y="24" width="3" height="3" fill="#9e4f36"/><rect x="9" y="24" width="12" height="3" fill="#d97757"/><rect x="21" y="24" width="6" height="3" fill="#fbefe4"/><rect x="27" y="24" width="6" height="3" fill="#d97757"/><rect x="12" y="27" width="6" height="3" fill="#d97757"/><rect x="24" y="27" width="6" height="3" fill="#d97757"/><animate attributeName="opacity" values="1;0" dur="1.2s" calcMode="discrete" repeatCount="indefinite"/></g><g opacity="0"><rect x="12" y="0" width="3" height="3" fill="#d97757"/><rect x="30" y="0" width="3" height="3" fill="#d97757"/><rect x="12" y="3" width="6" height="3" fill="#d97757"/><rect x="27" y="3" width="6" height="3" fill="#d97757"/><rect x="9" y="6" width="27" height="3" fill="#d97757"/><rect x="9" y="9" width="27" height="3" fill="#d97757"/><rect x="9" y="12" width="3" height="3" fill="#d97757"/><rect x="12" y="12" width="6" height="3" fill="#9e4f36"/><rect x="18" y="12" width="9" height="3" fill="#d97757"/><rect x="27" y="12" width="6" height="3" fill="#9e4f36"/><rect x="33" y="12" width="3" height="3" fill="#d97757"/><rect x="9" y="15" width="3" height="3" fill="#f4a4a0"/><rect x="12" y="15" width="9" height="3" fill="#d97757"/><rect x="21" y="15" width="3" height="3" fill="#e8737a"/><rect x="24" y="15" width="9" height="3" fill="#d97757"/><rect x="33" y="15" width="3" height="3" fill="#f4a4a0"/><rect x="3" y="18" width="3" height="3" fill="#9e4f36"/><rect x="12" y="18" width="21" height="3" fill="#d97757"/><rect x="6" y="21" width="3" height="3" fill="#9e4f36"/><rect x="12" y="21" width="9" height="3" fill="#d97757"/><rect x="21" y="21" width="9" height="3" fill="#fbefe4"/><rect x="30" y="21" width="3" height="3" fill="#d97757"/><rect x="6" y="24" width="3" height="3" fill="#9e4f36"/><rect x="9" y="24" width="12" height="3" fill="#d97757"/><rect x="21" y="24" width="6" height="3" fill="#fbefe4"/><rect x="27" y="24" width="6" height="3" fill="#d97757"/><rect x="12" y="27" width="6" height="3" fill="#d97757"/><rect x="24" y="27" width="6" height="3" fill="#d97757"/><animate attributeName="opacity" values="0;1" dur="1.2s" calcMode="discrete" repeatCount="indefinite"/></g></g>
    </g>
    
    <g opacity="0">
    <animate attributeName="opacity" from="0" to="1" dur="0.15s" fill="freeze"/>
    <animateTransform attributeName="transform" type="translate" from="0 3" to="0 0" dur="0.18s" fill="freeze"/>
    <rect x="41" y="6" width="87" height="18" rx="9" fill="#3fb950" fill-opacity="0.16" stroke="#3fb950" stroke-opacity="0.7"/>
    <path d="M41 13 l-5 2 l5 2 z" fill="#3fb950" fill-opacity="0.16"/>
    <text x="48" y="18.5" font-family="ui-monospace, Menlo, monospace" font-size="11" fill="#3fb950"><tspan>✦<animate attributeName="opacity" values="1;0.3;1" dur="0.8s" repeatCount="indefinite"/></tspan> done! 42s</text>
  </g>
    </g></g></g>
    
  </svg>
</svg></svg></svg>