<svg xmlns="http://www.w3.org/2000/svg" width="640" height="298" viewBox="0 0 640 298"><rect width="100%" height="100%" rx="12" fill="#1f1e1d"/><text x="12" y="22" font-family="-apple-system,Segoe UI,sans-serif" font-size="12" fill="#a8a29e">Clear: fishing at the fishbowl</text>
      <svg x="12" y="28" width="616" height="38" overflow="visible"><svg xmlns="http://www.w3.org/2000/svg" width="100%" height="38" overflow="visible" style="background:transparent">
  
  
  
  
  <svg x="21.250%" y="8" width="36" height="30" overflow="visible">
    <g><g><g>
    <g shape-rendering="crispEdges">
      <g transform="translate(38 9)"><g opacity="0">
      <animate attributeName="opacity" values="0;1;1;0" keyTimes="0;0.000;1.000;1" dur="3600000ms" begin="0ms" fill="freeze"/>
      <rect x="3" y="0" width="3" height="3" fill="#cfe8f3"/><rect x="18" y="0" width="3" height="3" fill="#cfe8f3"/><rect x="0" y="3" width="3" height="3" fill="#cfe8f3"/><rect x="21" y="3" width="3" height="3" fill="#cfe8f3"/><rect x="0" y="6" width="3" height="3" fill="#cfe8f3"/><rect x="3" y="6" width="18" height="3" fill="#3f8fd6"/><rect x="21" y="6" width="3" height="3" fill="#cfe8f3"/><rect x="0" y="9" width="3" height="3" fill="#cfe8f3"/><rect x="3" y="9" width="18" height="3" fill="#3f8fd6"/><rect x="21" y="9" width="3" height="3" fill="#cfe8f3"/><rect x="0" y="12" width="3" height="3" fill="#cfe8f3"/><rect x="3" y="12" width="18" height="3" fill="#3f8fd6"/><rect x="21" y="12" width="3" height="3" fill="#cfe8f3"/><rect x="3" y="15" width="3" height="3" fill="#cfe8f3"/><rect x="6" y="15" width="12" height="3" fill="#3f8fd6"/><rect x="18" y="15" width="3" height="3" fill="#cfe8f3"/><rect x="6" y="18" width="12" height="3" fill="#cfe8f3"/><g transform="translate(3 9)"><g>
        <animateTransform attributeName="transform" type="translate" values="0 0;6 0;0 0" dur="3s" repeatCount="indefinite"/>
        <rect x="0" y="0" width="9" height="3" fill="#f2994a"/><rect x="9" y="0" width="3" height="3" fill="#f7c59f"/><rect x="3" y="3" width="6" height="3" fill="#f2994a"/><rect x="9" y="3" width="3" height="3" fill="#f7c59f"/></g></g></g></g>
      <g><g><rect x="12" y="0" width="3" height="3" fill="#d97757"/><rect x="30" y="0" width="3" height="3" fill="#d97757"/><rect x="12" y="3" width="6" height="3" fill="#d97757"/><rect x="27" y="3" width="6" height="3" fill="#d97757"/><rect x="9" y="6" width="27" height="3" fill="#d97757"/><rect x="9" y="9" width="3" height="3" fill="#d97757"/><rect x="12" y="9" width="3" height="3" fill="#1f1e1d"/><rect x="15" y="9" width="3" height="3" fill="#ffffff"/><rect x="18" y="9" width="9" height="3" fill="#d97757"/><rect x="27" y="9" width="3" height="3" fill="#1f1e1d"/><rect x="30" y="9" width="3" height="3" fill="#ffffff"/><rect x="33" y="9" width="3" height="3" fill="#d97757"/><rect x="9" y="12" width="3" height="3" fill="#d97757"/><rect x="12" y="12" width="6" height="3" fill="#1f1e1d"/><rect x="18" y="12" width="9" height="3" fill="#d97757"/><rect x="27" y="12" width="6" height="3" fill="#1f1e1d"/><rect x="33" y="12" width="3" height="3" fill="#d97757"/><rect x="9" y="15" width="3" height="3" fill="#f4a4a0"/><rect x="12" y="15" width="9" height="3" fill="#d97757"/><rect x="21" y="15" width="3" height="3" fill="#e8737a"/><rect x="24" y="15" width="9" height="3" fill="#d97757"/><rect x="33" y="15" width="3" height="3" fill="#f4a4a0"/><rect x="12" y="18" width="21" height="3" fill="#d97757"/><rect x="6" y="21" width="3" height="3" fill="#9e4f36"/><rect x="12" y="21" width="9" height="3" fill="#d97757"/><rect x="21" y="21" width="9" height="3" fill="#fbefe4"/><rect x="30" y="21" width="3" height="3" fill="#d97757"/><rect x="6" y="24" width="3" height="3" fill="#9e4f36"/><rect x="9" y="24" width="12" height="3" fill="#d97757"/><rect x="21" y="24" width="6" height="3" fill="#fbefe4"/><rect x="27" y="24" width="6" height="3" fill="#d97757"/><rect x="12" y="27" width="6" height="3" fill="#d97757"/><rect x="24" y="27" width="6" height="3" fill="#d97757"/><animate attributeName="opacity" values="1;0" dur="1s" calcMode="discrete" repeatCount="indefinite"/></g><g opacity="0"><rect x="12" y="0" width="3" height="3" fill="#d97757"/><rect x="30" y="0" width="3" height="3" fill="#d97757"/><rect x="12" y="3" width="6" height="3" fill="#d97757"/><rect x="27" y="3" width="6" height="3" fill="#d97757"/><rect x="9" y="6" width="27" height="3" fill="#d97757"/><rect x="9" y="9" width="3" height="3" fill="#d97757"/><rect x="12" y="9" width="3" height="3" fill="#1f1e1d"/><rect x="15" y="9" width="3" height="3" fill="#ffffff"/><rect x="18" y="9" width="9" height="3" fill="#d97757"/><rect x="27" y="9" width="3" height="3" fill="#1f1e1d"/><rect x="30" y="9" width="3" height="3" fill="#ffffff"/><rect x="33" y="9" width="3" height="3" fill="#d97757"/><rect x="9" y="12" width="3" height="3" fill="#d97757"/><rect x="12" y="12" width="6" height="3" fill="#1f1e1d"/><rect x="18" y="12" width="9" height="3" fill="#d97757"/><rect x="27" y="12" width="6" height="3" fill="#1f1e1d"/><rect x="33" y="12" width="3" height="3" fill="#d97757"/><rect x="9" y="15" width="3" height="3" fill="#f4a4a0"/><rect x="12" y="15" width="9" height="3" fill="#d97757"/><rect x="21" y="15" width="3" height="3" fill="#e8737a"/><rect x="24" y="15" width="9" height="3" fill="#d97757"/><rect x="33" y="15" width="3" height="3" fill="#f4a4a0"/><rect x="12" y="18" width="21" height="3" fill="#d97757"/><rect x="6" y="21" width="3" height="3" fill="#9e4f36"/><rect x="12" y="21" width="9" height="3" fill="#d97757"/><rect x="21" y="21" width="9" height="3" fill="#fbefe4"/><rect x="30" y="21" width="6" height="3" fill="#d97757"/><rect x="6" y="24" width="3" height="3" fill="#9e4f36"/><rect x="9" y="24" width="12" height="3" fill="#d97757"/><rect x="21" y="24" width="6" height="3" fill="#fbefe4"/><rect x="27" y="24" width="6" height="3" fill="#d97757"/><rect x="12" y="27" width="6" height="3" fill="#d97757"/><animate attributeName="opacity" values="0;1" dur="1s" calcMode="discrete" repeatCount="indefinite"/></g><g opacity="0"><rect x="12" y="9" width="6" height="3" fill="#d97757"/><rect x="27" y="9" width="6" height="3" fill="#d97757"/><rect x="12" y="12" width="6" height="3" fill="#9e4f36"/><rect x="27" y="12" width="6" height="3" fill="#9e4f36"/><animate attributeName="opacity" values="0;1;0" keyTimes="0;0.95;0.98" dur="4s" calcMode="discrete" repeatCount="indefinite"/></g></g>
    </g>
    
    <g opacity="0">
    <animate attributeName="opacity" from="0" to="1" dur="0.15s" fill="freeze"/>
    <animateTransform attributeName="transform" type="translate" from="0 3" to="0 0" dur="0.18s" fill="freeze"/>
    <rect x="-85" y="6" width="80" height="18" rx="9" fill="#8b949e" fill-opacity="0.16" stroke="#8b949e" stroke-opacity="0.7"/>
    <path d="M-5 13 l5 2 l-5 2 z" fill="#8b949e" fill-opacity="0.16"/>
    <text x="-78" y="18.5" font-family="ui-monospace, Menlo, monospace" font-size="11" fill="#8b949e">fishing<tspan opacity="0">.<animate attributeName="opacity" values="0;1;1;0" keyTimes="0;0.2;0.8;1" dur="1.2s" begin="0s" repeatCount="indefinite"/></tspan><tspan opacity="0">.<animate attributeName="opacity" values="0;1;1;0" keyTimes="0;0.2;0.8;1" dur="1.2s" begin="0.2s" repeatCount="indefinite"/></tspan><tspan opacity="0">.<animate attributeName="opacity" values="0;1;1;0" keyTimes="0;0.2;0.8;1" dur="1.2s" begin="0.4s" repeatCount="indefinite"/></tspan></text>
  </g>
    </g></g></g>
    
  </svg>
</svg></svg>
<text x="12" y="90" font-family="-apple-system,Segoe UI,sans-serif" font-size="12" fill="#a8a29e">Grass: stalking a bird</text>
      <svg x="12" y="96" width="616" height="38" overflow="visible"><svg xmlns="http://www.w3.org/2000/svg" width="100%" height="38" overflow="visible" style="background:transparent">
  
  <rect x="0" y="33" width="100%" height="5" rx="2" fill="#2f6b3a"/><svg x="6%" y="27" overflow="visible"><path d="M0 6 l2 -5 l1 5 l2 -6 l1 6" fill="none" stroke="#4f9a5a" stroke-width="1.2"/></svg><svg x="19%" y="27" overflow="visible"><path d="M0 6 l2 -5 l1 5 l2 -6 l1 6" fill="none" stroke="#4f9a5a" stroke-width="1.2"/></svg><svg x="33%" y="27" overflow="visible"><path d="M0 6 l2 -5 l1 5 l2 -6 l1 6" fill="none" stroke="#4f9a5a" stroke-width="1.2"/></svg><svg x="47%" y="27" overflow="visible"><path d="M0 6 l2 -5 l1 5 l2 -6 l1 6" fill="none" stroke="#4f9a5a" stroke-width="1.2"/></svg><svg x="61%" y="27" overflow="visible"><path d="M0 6 l2 -5 l1 5 l2 -6 l1 6" fill="none" stroke="#4f9a5a" stroke-width="1.2"/></svg><svg x="74%" y="27" overflow="visible"><path d="M0 6 l2 -5 l1 5 l2 -6 l1 6" fill="none" stroke="#4f9a5a" stroke-width="1.2"/></svg><svg x="88%" y="27" overflow="visible"><path d="M0 6 l2 -5 l1 5 l2 -6 l1 6" fill="none" stroke="#4f9a5a" stroke-width="1.2"/></svg>
  
  <svg x="35.700%" y="8" width="36" height="30" overflow="visible">
    <g shape-rendering="crispEdges" transform="translate(39 18)"><g><rect x="6" y="0" width="6" height="3" fill="#9c7a5b"/><rect x="0" y="3" width="12" height="3" fill="#9c7a5b"/><rect x="12" y="3" width="3" height="3" fill="#f2b544"/><rect x="3" y="6" width="9" height="3" fill="#9c7a5b"/><rect x="6" y="9" width="3" height="3" fill="#5d4037"/><animate attributeName="opacity" values="1;0" dur="0.7s" calcMode="discrete" repeatCount="indefinite"/></g><g opacity="0"><rect x="6" y="3" width="6" height="3" fill="#9c7a5b"/><rect x="0" y="6" width="12" height="3" fill="#9c7a5b"/><rect x="12" y="6" width="3" height="3" fill="#f2b544"/><rect x="3" y="9" width="3" height="3" fill="#5d4037"/><rect x="6" y="9" width="6" height="3" fill="#9c7a5b"/><animate attributeName="opacity" values="0;1" dur="0.7s" calcMode="discrete" repeatCount="indefinite"/></g></g>
  </svg>
  <svg x="35.689%" y="8" width="36" height="30" overflow="visible"><animate attributeName="x" from="35.689%" to="35.700%" dur="4000ms" fill="freeze"/>
    <g><g><g>
    <g shape-rendering="crispEdges">
      
      <g><g><rect x="12" y="0" width="3" height="3" fill="#2e2e33"/><rect x="30" y="0" width="3" height="3" fill="#2e2e33"/><rect x="12" y="3" width="6" height="3" fill="#2e2e33"/><rect x="27" y="3" width="6" height="3" fill="#2e2e33"/><rect x="9" y="6" width="27" height="3" fill="#2e2e33"/><rect x="9" y="9" width="3" height="3" fill="#2e2e33"/><rect x="12" y="9" width="3" height="3" fill="#b8d86a"/><rect x="15" y="9" width="3" height="3" fill="#ffffff"/><rect x="18" y="9" width="9" height="3" fill="#2e2e33"/><rect x="27" y="9" width="3" height="3" fill="#b8d86a"/><rect x="30" y="9" width="3" height="3" fill="#ffffff"/><rect x="33" y="9" width="3" height="3" fill="#2e2e33"/><rect x="9" y="12" width="3" height="3" fill="#2e2e33"/><rect x="12" y="12" width="6" height="3" fill="#b8d86a"/><rect x="18" y="12" width="9" height="3" fill="#2e2e33"/><rect x="27" y="12" width="6" height="3" fill="#b8d86a"/><rect x="33" y="12" width="3" height="3" fill="#2e2e33"/><rect x="9" y="15" width="3" height="3" fill="#f4a4a0"/><rect x="12" y="15" width="9" height="3" fill="#2e2e33"/><rect x="21" y="15" width="3" height="3" fill="#e8737a"/><rect x="24" y="15" width="9" height="3" fill="#2e2e33"/><rect x="33" y="15" width="3" height="3" fill="#f4a4a0"/><rect x="0" y="18" width="3" height="3" fill="#141416"/><rect x="12" y="18" width="21" height="3" fill="#2e2e33"/><rect x="3" y="21" width="3" height="3" fill="#141416"/><rect x="9" y="21" width="9" height="3" fill="#2e2e33"/><rect x="18" y="21" width="9" height="3" fill="#f7f7f7"/><rect x="27" y="21" width="3" height="3" fill="#2e2e33"/><rect x="6" y="24" width="24" height="3" fill="#2e2e33"/><rect x="9" y="27" width="6" height="3" fill="#2e2e33"/><rect x="24" y="27" width="6" height="3" fill="#2e2e33"/><animate attributeName="opacity" values="1;0" dur="0.6s" calcMode="discrete" repeatDur="4000ms"/></g><g opacity="0"><rect x="12" y="0" width="3" height="3" fill="#2e2e33"/><rect x="30" y="0" width="3" height="3" fill="#2e2e33"/><rect x="12" y="3" width="6" height="3" fill="#2e2e33"/><rect x="27" y="3" width="6" height="3" fill="#2e2e33"/><rect x="9" y="6" width="27" height="3" fill="#2e2e33"/><rect x="9" y="9" width="3" height="3" fill="#2e2e33"/><rect x="12" y="9" width="3" height="3" fill="#b8d86a"/><rect x="15" y="9" width="3" height="3" fill="#ffffff"/><rect x="18" y="9" width="9" height="3" fill="#2e2e33"/><rect x="27" y="9" width="3" height="3" fill="#b8d86a"/><rect x="30" y="9" width="3" height="3" fill="#ffffff"/><rect x="33" y="9" width="3" height="3" fill="#2e2e33"/><rect x="9" y="12" width="3" height="3" fill="#2e2e33"/><rect x="12" y="12" width="6" height="3" fill="#b8d86a"/><rect x="18" y="12" width="9" height="3" fill="#2e2e33"/><rect x="27" y="12" width="6" height="3" fill="#b8d86a"/><rect x="33" y="12" width="3" height="3" fill="#2e2e33"/><rect x="9" y="15" width="3" height="3" fill="#f4a4a0"/><rect x="12" y="15" width="9" height="3" fill="#2e2e33"/><rect x="21" y="15" width="3" height="3" fill="#e8737a"/><rect x="24" y="15" width="9" height="3" fill="#2e2e33"/><rect x="33" y="15" width="3" height="3" fill="#f4a4a0"/><rect x="0" y="18" width="3" height="3" fill="#141416"/><rect x="12" y="18" width="21" height="3" fill="#2e2e33"/><rect x="3" y="21" width="3" height="3" fill="#141416"/><rect x="9" y="21" width="9" height="3" fill="#2e2e33"/><rect x="18" y="21" width="9" height="3" fill="#f7f7f7"/><rect x="27" y="21" width="3" height="3" fill="#2e2e33"/><rect x="6" y="24" width="24" height="3" fill="#2e2e33"/><rect x="12" y="27" width="6" height="3" fill="#2e2e33"/><rect x="21" y="27" width="6" height="3" fill="#2e2e33"/><animate attributeName="opacity" values="0;1" dur="0.6s" calcMode="discrete" repeatDur="4000ms"/></g><g opacity="0"><rect x="12" y="9" width="6" height="3" fill="#2e2e33"/><rect x="27" y="9" width="6" height="3" fill="#2e2e33"/><rect x="12" y="12" width="6" height="3" fill="#141416"/><rect x="27" y="12" width="6" height="3" fill="#141416"/><animate attributeName="opacity" values="0;1;0" keyTimes="0;0.95;0.98" dur="4s" calcMode="discrete" repeatCount="indefinite"/></g></g>
    </g>
    
    <g opacity="0">
    <animate attributeName="opacity" from="0" to="1" dur="0.15s" fill="freeze"/>
    <animateTransform attributeName="transform" type="translate" from="0 3" to="0 0" dur="0.18s" fill="freeze"/>
    <rect x="-65" y="6" width="60" height="18" rx="9" fill="#8b949e" fill-opacity="0.16" stroke="#8b949e" stroke-opacity="0.7"/>
    <path d="M-5 13 l5 2 l-5 2 z" fill="#8b949e" fill-opacity="0.16"/>
    <text x="-58" y="18.5" font-family="ui-monospace, Menlo, monospace" font-size="11" fill="#8b949e">shhh<tspan opacity="0">.<animate attributeName="opacity" values="0;1;1;0" keyTimes="0;0.2;0.8;1" dur="1.2s" begin="0s" repeatCount="indefinite"/></tspan><tspan opacity="0">.<animate attributeName="opacity" values="0;1;1;0" keyTimes="0;0.2;0.8;1" dur="1.2s" begin="0.2s" repeatCount="indefinite"/></tspan><tspan opacity="0">.<animate attributeName="opacity" values="0;1;1;0" keyTimes="0;0.2;0.8;1" dur="1.2s" begin="0.4s" repeatCount="indefinite"/></tspan></text>
  </g>
    </g></g></g>
    
  </svg>
</svg></svg>
<text x="12" y="158" font-family="-apple-system,Segoe UI,sans-serif" font-size="12" fill="#a8a29e">Night: chasing the laser dot</text>
      <svg x="12" y="164" width="616" height="38" overflow="visible"><svg xmlns="http://www.w3.org/2000/svg" width="100%" height="38" overflow="visible" style="background:transparent">
  
  <rect x="0" y="0" width="100%" height="38" rx="6" fill="#141a2e"/><circle cx="4%" cy="6" r="0.9" fill="#e8e6ff"><animate attributeName="opacity" values="1;0.2;1" dur="2s" begin="0s" repeatCount="indefinite"/></circle><circle cx="13%" cy="18" r="0.9" fill="#e8e6ff"><animate attributeName="opacity" values="1;0.2;1" dur="3s" begin="0.37s" repeatCount="indefinite"/></circle><circle cx="22%" cy="5" r="0.9" fill="#e8e6ff"><animate attributeName="opacity" values="1;0.2;1" dur="4s" begin="0.74s" repeatCount="indefinite"/></circle><circle cx="37%" cy="11" r="0.9" fill="#e8e6ff"><animate attributeName="opacity" values="1;0.2;1" dur="2s" begin="1.1099999999999999s" repeatCount="indefinite"/></circle><circle cx="51%" cy="4" r="0.9" fill="#e8e6ff"><animate attributeName="opacity" values="1;0.2;1" dur="3s" begin="1.48s" repeatCount="indefinite"/></circle><circle cx="63%" cy="16" r="0.9" fill="#e8e6ff"><animate attributeName="opacity" values="1;0.2;1" dur="4s" begin="1.85s" repeatCount="indefinite"/></circle><circle cx="71%" cy="7" r="0.9" fill="#e8e6ff"><animate attributeName="opacity" values="1;0.2;1" dur="2s" begin="2.2199999999999998s" repeatCount="indefinite"/></circle><circle cx="83%" cy="13" r="0.9" fill="#e8e6ff"><animate attributeName="opacity" values="1;0.2;1" dur="3s" begin="2.59s" repeatCount="indefinite"/></circle><circle cx="95%" cy="5" r="0.9" fill="#e8e6ff"><animate attributeName="opacity" values="1;0.2;1" dur="4s" begin="2.96s" repeatCount="indefinite"/></circle><circle cx="92%" cy="9" r="5" fill="#f2e9c9"/><circle cx="91%" cy="8" r="5" fill="#141a2e" transform="translate(-3 -1)"/>
  
  
  <svg x="51.000%" y="8" width="36" height="30" overflow="visible">
    <g><g><g>
    <g shape-rendering="crispEdges">
      <g transform="translate(-6 27)"><g>
      <animateTransform attributeName="transform" type="translate" values="0 0;3 -2;-2 1;2 2;-3 -1;0 0" dur="0.5s" repeatCount="indefinite"/>
      <circle r="4.5" fill="#ff3b3b" opacity="0.3"/><circle r="1.8" fill="#ff6060"/>
    </g></g>
      <g><g><rect x="3" y="0" width="3" height="3" fill="#9aa0a6"/><rect x="21" y="0" width="3" height="3" fill="#9aa0a6"/><rect x="3" y="3" width="6" height="3" fill="#9aa0a6"/><rect x="18" y="3" width="6" height="3" fill="#9aa0a6"/><rect x="0" y="6" width="27" height="3" fill="#9aa0a6"/><rect x="0" y="9" width="3" height="3" fill="#9aa0a6"/><rect x="3" y="9" width="3" height="3" fill="#ffffff"/><rect x="6" y="9" width="3" height="3" fill="#1f1e1d"/><rect x="9" y="9" width="9" height="3" fill="#9aa0a6"/><rect x="18" y="9" width="3" height="3" fill="#ffffff"/><rect x="21" y="9" width="3" height="3" fill="#1f1e1d"/><rect x="24" y="9" width="3" height="3" fill="#9aa0a6"/><rect x="0" y="12" width="3" height="3" fill="#9aa0a6"/><rect x="3" y="12" width="6" height="3" fill="#1f1e1d"/><rect x="9" y="12" width="9" height="3" fill="#9aa0a6"/><rect x="18" y="12" width="6" height="3" fill="#1f1e1d"/><rect x="24" y="12" width="3" height="3" fill="#9aa0a6"/><rect x="0" y="15" width="3" height="3" fill="#f4a4a0"/><rect x="3" y="15" width="9" height="3" fill="#9aa0a6"/><rect x="12" y="15" width="3" height="3" fill="#e8737a"/><rect x="15" y="15" width="9" height="3" fill="#9aa0a6"/><rect x="24" y="15" width="3" height="3" fill="#f4a4a0"/><rect x="3" y="18" width="21" height="3" fill="#9aa0a6"/><rect x="3" y="21" width="3" height="3" fill="#9aa0a6"/><rect x="6" y="21" width="9" height="3" fill="#eceff1"/><rect x="15" y="21" width="9" height="3" fill="#9aa0a6"/><rect x="27" y="21" width="3" height="3" fill="#5f6368"/><rect x="3" y="24" width="6" height="3" fill="#9aa0a6"/><rect x="9" y="24" width="6" height="3" fill="#eceff1"/><rect x="15" y="24" width="12" height="3" fill="#9aa0a6"/><rect x="27" y="24" width="3" height="3" fill="#5f6368"/><rect x="6" y="27" width="6" height="3" fill="#9aa0a6"/><rect x="18" y="27" width="6" height="3" fill="#9aa0a6"/><animate attributeName="opacity" values="1;0" dur="1.2s" calcMode="discrete" repeatCount="indefinite"/></g><g opacity="0"><rect x="3" y="0" width="3" height="3" fill="#9aa0a6"/><rect x="21" y="0" width="3" height="3" fill="#9aa0a6"/><rect x="3" y="3" width="6" height="3" fill="#9aa0a6"/><rect x="18" y="3" width="6" height="3" fill="#9aa0a6"/><rect x="0" y="6" width="27" height="3" fill="#9aa0a6"/><rect x="0" y="9" width="3" height="3" fill="#9aa0a6"/><rect x="3" y="9" width="3" height="3" fill="#ffffff"/><rect x="6" y="9" width="3" height="3" fill="#1f1e1d"/><rect x="9" y="9" width="9" height="3" fill="#9aa0a6"/><rect x="18" y="9" width="3" height="3" fill="#ffffff"/><rect x="21" y="9" width="3" height="3" fill="#1f1e1d"/><rect x="24" y="9" width="3" height="3" fill="#9aa0a6"/><rect x="0" y="12" width="3" height="3" fill="#9aa0a6"/><rect x="3" y="12" width="6" height="3" fill="#1f1e1d"/><rect x="9" y="12" width="9" height="3" fill="#9aa0a6"/><rect x="18" y="12" width="6" height="3" fill="#1f1e1d"/><rect x="24" y="12" width="3" height="3" fill="#9aa0a6"/><rect x="0" y="15" width="3" height="3" fill="#f4a4a0"/><rect x="3" y="15" width="9" height="3" fill="#9aa0a6"/><rect x="12" y="15" width="3" height="3" fill="#e8737a"/><rect x="15" y="15" width="9" height="3" fill="#9aa0a6"/><rect x="24" y="15" width="3" height="3" fill="#f4a4a0"/><rect x="3" y="18" width="21" height="3" fill="#9aa0a6"/><rect x="30" y="18" width="3" height="3" fill="#5f6368"/><rect x="3" y="21" width="3" height="3" fill="#9aa0a6"/><rect x="6" y="21" width="9" height="3" fill="#eceff1"/><rect x="15" y="21" width="9" height="3" fill="#9aa0a6"/><rect x="27" y="21" width="3" height="3" fill="#5f6368"/><rect x="3" y="24" width="6" height="3" fill="#9aa0a6"/><rect x="9" y="24" width="6" height="3" fill="#eceff1"/><rect x="15" y="24" width="12" height="3" fill="#9aa0a6"/><rect x="27" y="24" width="3" height="3" fill="#5f6368"/><rect x="6" y="27" width="6" height="3" fill="#9aa0a6"/><rect x="18" y="27" width="6" height="3" fill="#9aa0a6"/><animate attributeName="opacity" values="0;1" dur="1.2s" calcMode="discrete" repeatCount="indefinite"/></g><g opacity="0"><rect x="3" y="9" width="6" height="3" fill="#9aa0a6"/><rect x="18" y="9" width="6" height="3" fill="#9aa0a6"/><rect x="3" y="12" width="6" height="3" fill="#5f6368"/><rect x="18" y="12" width="6" height="3" fill="#5f6368"/><animate attributeName="opacity" values="0;1;0" keyTimes="0;0.95;0.98" dur="4s" calcMode="discrete" repeatCount="indefinite"/></g></g>
    </g>
    
    <g opacity="0">
    <animate attributeName="opacity" from="0" to="1" dur="0.15s" fill="freeze"/>
    <animateTransform attributeName="transform" type="translate" from="0 3" to="0 0" dur="0.18s" fill="freeze"/>
    <rect x="41" y="6" width="60" height="18" rx="9" fill="#8b949e" fill-opacity="0.16" stroke="#8b949e" stroke-opacity="0.7"/>
    <path d="M41 13 l-5 2 l5 2 z" fill="#8b949e" fill-opacity="0.16"/>
    <text x="48" y="18.5" font-family="ui-monospace, Menlo, monospace" font-size="11" fill="#8b949e">THE DOT</text>
  </g>
    </g></g></g>
    
  </svg>
</svg></svg>
<text x="12" y="226" font-family="-apple-system,Segoe UI,sans-serif" font-size="12" fill="#a8a29e">Cozy: fishing at the tank</text>
      <svg x="12" y="232" width="616" height="38" overflow="visible"><svg xmlns="http://www.w3.org/2000/svg" width="100%" height="38" overflow="visible" style="background:transparent">
  
  <rect x="0" y="0" width="100%" height="38" rx="6" fill="#3a2c24"/><rect x="0" y="34" width="100%" height="4" fill="#5a4334"/><rect x="70%" y="31" width="18%" height="3" rx="1.5" fill="#a2554a" opacity="0.8"/>
  
  
  <svg x="59.500%" y="8" width="36" height="30" overflow="visible">
    <g><g><g>
    <g shape-rendering="crispEdges">
      <g transform="translate(-32 6)"><g opacity="0">
      <animate attributeName="opacity" values="0;1;1;0" keyTimes="0;0.000;1.000;1" dur="3600000ms" begin="0ms" fill="freeze"/>
      <rect x="0" y="0" width="30" height="3" fill="#cfe8f3"/><rect x="0" y="3" width="3" height="3" fill="#cfe8f3"/><rect x="27" y="3" width="3" height="3" fill="#cfe8f3"/><rect x="0" y="6" width="3" height="3" fill="#cfe8f3"/><rect x="3" y="6" width="24" height="3" fill="#3f8fd6"/><rect x="27" y="6" width="3" height="3" fill="#cfe8f3"/><rect x="0" y="9" width="3" height="3" fill="#cfe8f3"/><rect x="3" y="9" width="24" height="3" fill="#3f8fd6"/><rect x="27" y="9" width="3" height="3" fill="#cfe8f3"/><rect x="0" y="12" width="3" height="3" fill="#cfe8f3"/><rect x="3" y="12" width="18" height="3" fill="#3f8fd6"/><rect x="21" y="12" width="3" height="3" fill="#4caf50"/><rect x="24" y="12" width="3" height="3" fill="#3f8fd6"/><rect x="27" y="12" width="3" height="3" fill="#cfe8f3"/><rect x="0" y="15" width="3" height="3" fill="#cfe8f3"/><rect x="3" y="15" width="15" height="3" fill="#3f8fd6"/><rect x="18" y="15" width="3" height="3" fill="#4caf50"/><rect x="21" y="15" width="6" height="3" fill="#3f8fd6"/><rect x="27" y="15" width="3" height="3" fill="#cfe8f3"/><rect x="0" y="18" width="3" height="3" fill="#cfe8f3"/><rect x="3" y="18" width="18" height="3" fill="#e3c78a"/><rect x="21" y="18" width="3" height="3" fill="#4caf50"/><rect x="24" y="18" width="3" height="3" fill="#e3c78a"/><rect x="27" y="18" width="3" height="3" fill="#cfe8f3"/><rect x="0" y="21" width="30" height="3" fill="#5a4a3f"/><g transform="translate(3 9)"><g>
        <animateTransform attributeName="transform" type="translate" values="0 0;12 0;0 0" dur="3s" repeatCount="indefinite"/>
        <rect x="0" y="0" width="9" height="3" fill="#f2994a"/><rect x="9" y="0" width="3" height="3" fill="#f7c59f"/><rect x="3" y="3" width="6" height="3" fill="#f2994a"/><rect x="9" y="3" width="3" height="3" fill="#f7c59f"/></g></g></g></g>
      <g><g><rect x="3" y="0" width="3" height="3" fill="#f1d6a8"/><rect x="21" y="0" width="3" height="3" fill="#f1d6a8"/><rect x="3" y="3" width="6" height="3" fill="#f1d6a8"/><rect x="18" y="3" width="6" height="3" fill="#f1d6a8"/><rect x="0" y="6" width="27" height="3" fill="#f1d6a8"/><rect x="0" y="9" width="3" height="3" fill="#f1d6a8"/><rect x="3" y="9" width="3" height="3" fill="#ffffff"/><rect x="6" y="9" width="3" height="3" fill="#1f1e1d"/><rect x="9" y="9" width="9" height="3" fill="#f1d6a8"/><rect x="18" y="9" width="3" height="3" fill="#ffffff"/><rect x="21" y="9" width="3" height="3" fill="#1f1e1d"/><rect x="24" y="9" width="3" height="3" fill="#f1d6a8"/><rect x="0" y="12" width="3" height="3" fill="#f1d6a8"/><rect x="3" y="12" width="6" height="3" fill="#1f1e1d"/><rect x="9" y="12" width="9" height="3" fill="#f1d6a8"/><rect x="18" y="12" width="6" height="3" fill="#1f1e1d"/><rect x="24" y="12" width="3" height="3" fill="#f1d6a8"/><rect x="0" y="15" width="3" height="3" fill="#f4a4a0"/><rect x="3" y="15" width="9" height="3" fill="#f1d6a8"/><rect x="12" y="15" width="3" height="3" fill="#e8737a"/><rect x="15" y="15" width="9" height="3" fill="#f1d6a8"/><rect x="24" y="15" width="3" height="3" fill="#f4a4a0"/><rect x="3" y="18" width="21" height="3" fill="#f1d6a8"/><rect x="3" y="21" width="3" height="3" fill="#f1d6a8"/><rect x="6" y="21" width="9" height="3" fill="#fbefe4"/><rect x="15" y="21" width="9" height="3" fill="#f1d6a8"/><rect x="27" y="21" width="3" height="3" fill="#c49a5e"/><rect x="3" y="24" width="6" height="3" fill="#f1d6a8"/><rect x="9" y="24" width="6" height="3" fill="#fbefe4"/><rect x="15" y="24" width="12" height="3" fill="#f1d6a8"/><rect x="27" y="24" width="3" height="3" fill="#c49a5e"/><rect x="6" y="27" width="6" height="3" fill="#f1d6a8"/><rect x="18" y="27" width="6" height="3" fill="#f1d6a8"/><animate attributeName="opacity" values="1;0" dur="1s" calcMode="discrete" repeatCount="indefinite"/></g><g opacity="0"><rect x="3" y="0" width="3" height="3" fill="#f1d6a8"/><rect x="21" y="0" width="3" height="3" fill="#f1d6a8"/><rect x="3" y="3" width="6" height="3" fill="#f1d6a8"/><rect x="18" y="3" width="6" height="3" fill="#f1d6a8"/><rect x="0" y="6" width="27" height="3" fill="#f1d6a8"/><rect x="0" y="9" width="3" height="3" fill="#f1d6a8"/><rect x="3" y="9" width="3" height="3" fill="#ffffff"/><rect x="6" y="9" width="3" height="3" fill="#1f1e1d"/><rect x="9" y="9" width="9" height="3" fill="#f1d6a8"/><rect x="18" y="9" width="3" height="3" fill="#ffffff"/><rect x="21" y="9" width="3" height="3" fill="#1f1e1d"/><rect x="24" y="9" width="3" height="3" fill="#f1d6a8"/><rect x="0" y="12" width="3" height="3" fill="#f1d6a8"/><rect x="3" y="12" width="6" height="3" fill="#1f1e1d"/><rect x="9" y="12" width="9" height="3" fill="#f1d6a8"/><rect x="18" y="12" width="6" height="3" fill="#1f1e1d"/><rect x="24" y="12" width="3" height="3" fill="#f1d6a8"/><rect x="0" y="15" width="3" height="3" fill="#f4a4a0"/><rect x="3" y="15" width="9" height="3" fill="#f1d6a8"/><rect x="12" y="15" width="3" height="3" fill="#e8737a"/><rect x="15" y="15" width="9" height="3" fill="#f1d6a8"/><rect x="24" y="15" width="3" height="3" fill="#f4a4a0"/><rect x="3" y="18" width="21" height="3" fill="#f1d6a8"/><rect x="0" y="21" width="6" height="3" fill="#f1d6a8"/><rect x="6" y="21" width="9" height="3" fill="#fbefe4"/><rect x="15" y="21" width="9" height="3" fill="#f1d6a8"/><rect x="27" y="21" width="3" height="3" fill="#c49a5e"/><rect x="3" y="24" width="6" height="3" fill="#f1d6a8"/><rect x="9" y="24" width="6" height="3" fill="#fbefe4"/><rect x="15" y="24" width="12" height="3" fill="#f1d6a8"/><rect x="27" y="24" width="3" height="3" fill="#c49a5e"/><rect x="18" y="27" width="6" height="3" fill="#f1d6a8"/><animate attributeName="opacity" values="0;1" dur="1s" calcMode="discrete" repeatCount="indefinite"/></g><g opacity="0"><rect x="3" y="9" width="6" height="3" fill="#f1d6a8"/><rect x="18" y="9" width="6" height="3" fill="#f1d6a8"/><rect x="3" y="12" width="6" height="3" fill="#c49a5e"/><rect x="18" y="12" width="6" height="3" fill="#c49a5e"/><animate attributeName="opacity" values="0;1;0" keyTimes="0;0.95;0.98" dur="4s" calcMode="discrete" repeatCount="indefinite"/></g></g>
    </g>
    
    
    </g></g></g>
    
  </svg>
</svg></svg></svg>